<?xml version="1.0" encoding="utf-8"?>
<!-- Generator: Adobe Illustrator 28.0.0, SVG Export Plug-In . SVG Version: 6.00 Build 0)  -->
<svg version="1.1" id="Layer_1" xmlns="http://www.w3.org/2000/svg" xmlns:xlink="http://www.w3.org/1999/xlink" x="0px" y="0px"
	 viewBox="0 0 558 565.4" style="enable-background:new 0 0 558 565.4;" xml:space="preserve">
<style type="text/css">
	.st0{fill:#AAAAAA;}
</style>
<path class="st0" d="M337.9,539.3l-0.5,0.5l0,0l0,0L337.9,539.3L337.9,539.3z M349.4,535.1l-0.5-0.4L349.4,535.1z M368,508.3
	l-0.2-0.6L368,508.3z M379.3,512.4l0.3-0.6L379.3,512.4z M397.9,521l0.3-0.6L397.9,521z M414.3,532.5l0.6-0.2L414.3,532.5z
	 M426.5,517.5l-0.6-0.3L426.5,517.5z M432.1,494.3l0.6,0.2L432.1,494.3z M435.9,471.3l-0.6,0L435.9,471.3z M436.9,461.7l0.6,0.2
	L436.9,461.7z M433.7,444.5l0.6,0L433.7,444.5z M436.9,420l0.6,0.2L436.9,420z M437.8,394.5l-0.6,0.2L437.8,394.5z M433.2,372.3
	l0.6-0.1L433.2,372.3z M421.4,347.9l0.5-0.4L421.4,347.9z M410.3,324.6l-0.6,0L410.3,324.6z M405.9,301.2l0.6-0.2L405.9,301.2z
	 M412.3,285.1l0.5,0.4l0,0l0,0L412.3,285.1z M427.8,264l-0.5-0.4L427.8,264z M437,247.2l-0.6-0.1L437,247.2z M441.5,224.8l-0.6-0.3
	L441.5,224.8z M457.3,197.4l0.4,0.5L457.3,197.4z M325.4,533.8l0.2-0.6L325.4,533.8z M310.6,527.7l0.6-0.3L310.6,527.7z
	 M306.5,476.7l0.6-0.1L306.5,476.7z M298.8,469.3l0.2-0.6L298.8,469.3z M281.1,455.3l0.6-0.2L281.1,455.3z M275,431.2l0.6-0.1
	L275,431.2z M269.4,408.5l-0.5,0.4L269.4,408.5z M261.3,390l-0.6,0.1L261.3,390z M256.2,373.8l0.4-0.5L256.2,373.8z M241.6,368.8
	l-0.1,0.6L241.6,368.8z M219.8,365.8l0-0.6L219.8,365.8z M191.6,359.5l-0.1,0.6L191.6,359.5z M156.1,354.6l-0.1,0.6L156.1,354.6z
	 M131.6,352.5l0.1-0.6L131.6,352.5z M101.1,336.1l-0.2,0.6L101.1,336.1z M72.3,327l0.2-0.6L72.3,327z M44.4,313.7l-0.3,0.6
	L44.4,313.7z M27.6,304.7l-0.4,0.5L27.6,304.7z M17,288.8c0.1,0.3,0.5,0.5,0.8,0.4c0.3-0.1,0.5-0.5,0.3-0.9L17,288.8L17,288.8z
	 M20,292c-0.2-0.3-0.6-0.5-0.9-0.3s-0.4,0.5-0.3,0.9L20,292L20,292z M19.1,293.2c0.2,0.3,0.5,0.4,0.9,0.3c0.3-0.2,0.4-0.5,0.3-0.9
	L19.1,293.2z M22.3,296.2c-0.2-0.3-0.6-0.4-0.9-0.2c-0.3,0.2-0.4,0.6-0.2,0.9L22.3,296.2z M21.5,297.5c0.2,0.3,0.6,0.4,0.9,0.2
	c0.3-0.2,0.4-0.6,0.2-0.9L21.5,297.5z M24.8,300.3c-0.2-0.3-0.6-0.4-0.9-0.2c-0.3,0.2-0.4,0.6-0.2,0.9L24.8,300.3L24.8,300.3z
	 M24.1,301.6c0.2,0.3,0.6,0.4,0.9,0.1c0.3-0.2,0.4-0.6,0.1-0.9C25.2,300.9,24.1,301.6,24.1,301.6z M27.8,303.9
	c-0.3-0.2-0.7-0.2-0.9,0.1c-0.2,0.3-0.2,0.7,0.1,0.9C26.9,304.9,27.8,303.9,27.8,303.9z M27.5,305.4c0.3,0.2,0.7,0.2,0.9-0.1
	c0.2-0.3,0.2-0.7-0.1-0.9L27.5,305.4L27.5,305.4z M31.6,306.6c-0.3-0.2-0.7-0.1-0.9,0.2c-0.2,0.3-0.1,0.7,0.2,0.9L31.6,306.6
	L31.6,306.6z M31.5,308.1c0.3,0.2,0.7,0.1,0.9-0.2s0.1-0.7-0.2-0.9L31.5,308.1L31.5,308.1z M35.8,308.9c-0.3-0.2-0.7,0-0.9,0.3
	s0,0.7,0.3,0.9L35.8,308.9z M35.8,310.4c0.3,0.2,0.7,0,0.9-0.3c0.2-0.3,0-0.7-0.3-0.9L35.8,310.4L35.8,310.4z M40,311
	c-0.3-0.1-0.7,0-0.9,0.3c-0.1,0.3,0,0.7,0.3,0.9L40,311L40,311z M40.1,312.5c0.3,0.1,0.7,0,0.9-0.3c0.2-0.3,0-0.7-0.3-0.9
	L40.1,312.5L40.1,312.5z M44.4,313c-0.3-0.1-0.7,0-0.8,0.3s0,0.7,0.3,0.9L44.4,313z M44.4,314.4c0.3,0.1,0.7,0,0.9-0.3
	c0.1-0.3,0-0.7-0.3-0.9L44.4,314.4L44.4,314.4z M48.4,314.9c-0.3-0.2-0.7,0-0.9,0.3c-0.2,0.3,0,0.7,0.3,0.9L48.4,314.9L48.4,314.9z
	 M48.3,316.4c0.3,0.2,0.7,0,0.9-0.3c0.2-0.3,0-0.7-0.3-0.9L48.3,316.4L48.3,316.4z M52.3,317.1c-0.3-0.2-0.7-0.1-0.9,0.2
	c-0.2,0.3-0.1,0.7,0.2,0.9L52.3,317.1L52.3,317.1z M52.2,318.5c0.3,0.2,0.7,0.1,0.9-0.2c0.2-0.3,0.1-0.7-0.2-0.9L52.2,318.5
	L52.2,318.5z M56.2,319.2c-0.3-0.2-0.7,0-0.9,0.3s0,0.7,0.3,0.9L56.2,319.2L56.2,319.2z M56.1,320.6c0.3,0.2,0.7,0,0.9-0.3
	c0.2-0.3,0-0.7-0.3-0.9L56.1,320.6L56.1,320.6z M60,321.3c-0.3-0.2-0.7,0-0.9,0.3s0,0.7,0.3,0.9L60,321.3z M60,322.7
	c0.3,0.2,0.7,0,0.9-0.3c0.2-0.3,0-0.7-0.3-0.9L60,322.7L60,322.7z M64,323.2c-0.3-0.1-0.7,0-0.9,0.3s0,0.7,0.3,0.9L64,323.2
	L64,323.2z M64,324.7c0.3,0.1,0.7,0,0.9-0.3s0-0.7-0.3-0.9L64,324.7z M68,324.9c-0.3-0.1-0.7,0-0.8,0.4c-0.1,0.3,0,0.7,0.4,0.8
	L68,324.9L68,324.9z M68.1,326.4c0.3,0.1,0.7,0,0.8-0.4c0.1-0.3,0-0.7-0.4-0.8L68.1,326.4z M72.1,326.3c-0.3-0.1-0.7,0.1-0.8,0.5
	c-0.1,0.3,0.1,0.7,0.5,0.8L72.1,326.3L72.1,326.3z M72.4,327.7c0.3,0.1,0.7-0.1,0.8-0.5c0.1-0.4-0.1-0.7-0.5-0.8
	C72.7,326.5,72.4,327.7,72.4,327.7z M76.3,327.4c-0.3-0.1-0.7,0.1-0.8,0.5c-0.1,0.3,0.1,0.7,0.5,0.8L76.3,327.4L76.3,327.4z
	 M76.6,328.8c0.3,0.1,0.7-0.1,0.8-0.5c0.1-0.3-0.1-0.7-0.4-0.8L76.6,328.8L76.6,328.8z M80.5,328.6c-0.3-0.1-0.7,0.1-0.8,0.4
	s0.1,0.7,0.4,0.8L80.5,328.6z M80.7,330c0.3,0.1,0.7-0.1,0.8-0.4c0.1-0.3-0.1-0.7-0.4-0.8L80.7,330z M84.6,329.8
	c-0.3-0.1-0.7,0.1-0.8,0.4c-0.1,0.3,0.1,0.7,0.4,0.8L84.6,329.8L84.6,329.8z M84.8,331.2c0.3,0.1,0.7-0.1,0.8-0.4s-0.1-0.7-0.4-0.8
	L84.8,331.2L84.8,331.2z M88.8,331.1c-0.3-0.1-0.7,0.1-0.8,0.4c-0.1,0.3,0.1,0.7,0.4,0.8L88.8,331.1z M88.9,332.5
	c0.3,0.1,0.7-0.1,0.8-0.4c0.1-0.3-0.1-0.7-0.4-0.8L88.9,332.5z M92.9,332.4c-0.3-0.1-0.7,0.1-0.8,0.4c-0.1,0.3,0.1,0.7,0.4,0.8
	L92.9,332.4L92.9,332.4z M93,333.9c0.3,0.1,0.7-0.1,0.8-0.4c0.1-0.3-0.1-0.7-0.4-0.8L93,333.9L93,333.9z M97,333.8
	c-0.3-0.1-0.7,0.1-0.8,0.4c-0.1,0.3,0.1,0.7,0.4,0.8L97,333.8L97,333.8z M97.1,335.3c0.3,0.1,0.7-0.1,0.8-0.4
	c0.1-0.3-0.1-0.7-0.4-0.8L97.1,335.3L97.1,335.3z M101,335.3c-0.3-0.1-0.7,0-0.8,0.4s0,0.7,0.3,0.8L101,335.3L101,335.3z
	 M101.1,336.8c0.3,0.1,0.7,0,0.8-0.3c0.2-0.3,0-0.7-0.3-0.9L101.1,336.8L101.1,336.8z M104.9,337.4c-0.3-0.2-0.7-0.1-0.9,0.2
	c-0.2,0.3-0.1,0.7,0.2,0.9L104.9,337.4L104.9,337.4z M104.8,338.8c0.3,0.2,0.7,0.1,0.9-0.2s0.1-0.7-0.2-0.9L104.8,338.8L104.8,338.8
	z M108.7,339.6c-0.3-0.2-0.7-0.1-0.9,0.2c-0.2,0.3-0.1,0.7,0.2,0.9L108.7,339.6L108.7,339.6z M108.6,341c0.3,0.2,0.7,0.1,0.9-0.2
	c0.2-0.3,0.1-0.7-0.2-0.9L108.6,341L108.6,341z M112.4,341.9c-0.3-0.2-0.7-0.1-0.9,0.2c-0.2,0.3-0.1,0.7,0.2,0.9L112.4,341.9
	L112.4,341.9z M112.3,343.3c0.3,0.2,0.7,0.1,0.9-0.2c0.2-0.3,0.1-0.7-0.2-0.9L112.3,343.3L112.3,343.3z M116.1,344.1
	c-0.3-0.2-0.7-0.1-0.9,0.2s-0.1,0.7,0.2,0.9L116.1,344.1L116.1,344.1z M116,345.5c0.3,0.2,0.7,0.1,0.9-0.2s0.1-0.7-0.2-0.9
	L116,345.5L116,345.5z M119.8,346.3c-0.3-0.2-0.7-0.1-0.9,0.2s-0.1,0.7,0.2,0.9L119.8,346.3z M119.7,347.7c0.3,0.2,0.7,0.1,0.9-0.2
	s0.1-0.7-0.2-0.9L119.7,347.7z M123.6,348.4c-0.3-0.2-0.7,0-0.9,0.3c-0.2,0.3-0.1,0.7,0.3,0.9L123.6,348.4L123.6,348.4z
	 M123.6,349.8c0.3,0.2,0.7,0,0.9-0.3c0.2-0.3,0.1-0.7-0.3-0.9L123.6,349.8L123.6,349.8z M127.5,350.3c-0.3-0.1-0.7,0-0.9,0.3
	c-0.2,0.3,0,0.7,0.3,0.9L127.5,350.3L127.5,350.3z M127.5,351.7c0.3,0.1,0.7,0,0.9-0.3c0.1-0.3,0-0.7-0.3-0.9L127.5,351.7
	L127.5,351.7z M131.4,351.8c-0.3-0.1-0.7,0.1-0.8,0.5c-0.1,0.4,0.1,0.7,0.5,0.8L131.4,351.8z M131.8,353.2c0.3,0.1,0.7-0.1,0.8-0.5
	c0.1-0.4-0.1-0.7-0.5-0.8L131.8,353.2z M136.1,352.6c-0.3,0-0.7,0.2-0.7,0.6c0,0.4,0.2,0.7,0.6,0.7L136.1,352.6L136.1,352.6z
	 M136.7,353.9c0.4,0,0.7-0.2,0.7-0.6c0-0.4-0.2-0.7-0.6-0.7L136.7,353.9z M141,353c-0.4,0-0.7,0.2-0.7,0.6c0,0.4,0.2,0.7,0.6,0.7
	L141,353L141,353z M141.6,354.4c0.4,0,0.7-0.2,0.7-0.6c0-0.4-0.2-0.7-0.6-0.7C141.7,353.1,141.6,354.4,141.6,354.4z M145.9,353.4
	c-0.4,0-0.7,0.2-0.7,0.6c0,0.4,0.2,0.7,0.6,0.7L145.9,353.4L145.9,353.4z M146.6,354.7c0.4,0,0.7-0.2,0.7-0.6c0-0.4-0.2-0.7-0.6-0.7
	L146.6,354.7L146.6,354.7z M150.8,353.6c-0.4,0-0.7,0.3-0.7,0.6s0.3,0.7,0.6,0.7L150.8,353.6L150.8,353.6z M151.5,354.9
	c0.4,0,0.7-0.3,0.7-0.6c0-0.4-0.3-0.7-0.6-0.7L151.5,354.9L151.5,354.9z M155.8,353.9c-0.4,0-0.7,0.2-0.7,0.6c0,0.4,0.2,0.7,0.6,0.7
	L155.8,353.9L155.8,353.9z M156.3,355.2c0.4,0,0.7-0.2,0.7-0.6c0-0.4-0.2-0.7-0.6-0.7L156.3,355.2L156.3,355.2z M160.3,354.4
	c-0.4,0-0.7,0.2-0.7,0.5c-0.1,0.4,0.2,0.7,0.6,0.7L160.3,354.4L160.3,354.4z M160.7,355.8c0.4,0,0.7-0.2,0.7-0.5
	c0.1-0.4-0.2-0.7-0.6-0.7L160.7,355.8L160.7,355.8z M164.7,355c-0.4,0-0.7,0.2-0.7,0.5c-0.1,0.4,0.2,0.7,0.6,0.7L164.7,355z
	 M165.2,356.4c0.4,0,0.7-0.2,0.7-0.5s-0.2-0.7-0.6-0.7L165.2,356.4z M169.2,355.7c-0.4,0-0.7,0.2-0.7,0.5c-0.1,0.4,0.2,0.7,0.6,0.7
	L169.2,355.7z M169.6,357c0.4,0,0.7-0.2,0.7-0.5c0.1-0.4-0.2-0.7-0.6-0.7L169.6,357z M173.6,356.3c-0.4,0-0.7,0.2-0.7,0.5
	c-0.1,0.4,0.2,0.7,0.6,0.7L173.6,356.3z M174,357.7c0.4,0,0.7-0.2,0.7-0.5c0.1-0.4-0.2-0.7-0.6-0.7L174,357.7z M178,356.9
	c-0.4,0-0.7,0.2-0.7,0.5c-0.1,0.4,0.2,0.7,0.6,0.7L178,356.9L178,356.9z M178.5,358.3c0.4,0,0.7-0.2,0.7-0.5
	c0.1-0.4-0.2-0.7-0.6-0.7L178.5,358.3L178.5,358.3z M182.5,357.6c-0.4,0-0.7,0.2-0.7,0.5c-0.1,0.4,0.2,0.7,0.6,0.7L182.5,357.6
	L182.5,357.6z M182.9,359c0.4,0,0.7-0.2,0.7-0.5c0.1-0.4-0.2-0.7-0.6-0.7L182.9,359L182.9,359z M186.9,358.2c-0.4,0-0.7,0.2-0.7,0.5
	c-0.1,0.4,0.2,0.7,0.6,0.7L186.9,358.2L186.9,358.2z M187.3,359.6c0.4,0,0.7-0.2,0.7-0.5c0.1-0.4-0.2-0.7-0.6-0.7L187.3,359.6z
	 M191.3,358.9c-0.4,0-0.7,0.2-0.7,0.5c-0.1,0.4,0.2,0.7,0.6,0.7L191.3,358.9z M191.7,360.2c0.4,0.1,0.7-0.2,0.7-0.5
	c0.1-0.4-0.2-0.7-0.5-0.7L191.7,360.2L191.7,360.2z M196,359.9c-0.4-0.1-0.7,0.1-0.8,0.5c-0.1,0.4,0.1,0.7,0.5,0.8L196,359.9z
	 M196.4,361.3c0.4,0.1,0.7-0.1,0.8-0.5s-0.1-0.7-0.5-0.8L196.4,361.3L196.4,361.3z M200.7,361.1c-0.3-0.1-0.7,0.1-0.8,0.5
	c-0.1,0.3,0.1,0.7,0.5,0.8L200.7,361.1L200.7,361.1z M201.1,362.5c0.3,0.1,0.7-0.1,0.8-0.5c0.1-0.3-0.1-0.7-0.5-0.8L201.1,362.5
	L201.1,362.5z M205.4,362.4c-0.3-0.1-0.7,0.1-0.8,0.5c-0.1,0.3,0.1,0.7,0.5,0.8L205.4,362.4L205.4,362.4z M205.7,363.8
	c0.3,0.1,0.7-0.1,0.8-0.5c0.1-0.3-0.1-0.7-0.5-0.8L205.7,363.8L205.7,363.8z M210.1,363.6c-0.4-0.1-0.7,0.1-0.8,0.5
	c-0.1,0.4,0.1,0.7,0.5,0.8L210.1,363.6z M210.4,365c0.4,0.1,0.7-0.1,0.8-0.5c0.1-0.4-0.1-0.7-0.5-0.8L210.4,365L210.4,365z
	 M214.7,364.6c-0.4-0.1-0.7,0.2-0.8,0.5c-0.1,0.4,0.2,0.7,0.5,0.8L214.7,364.6L214.7,364.6z M215.2,366c0.4,0.1,0.7-0.2,0.8-0.5
	c0.1-0.4-0.2-0.7-0.5-0.8L215.2,366z M219.4,365.2c-0.4,0-0.6,0.3-0.6,0.6c0,0.4,0.3,0.6,0.6,0.6L219.4,365.2L219.4,365.2z
	 M220.1,366.5c0.4,0,0.6-0.3,0.6-0.6c0-0.4-0.3-0.6-0.6-0.6L220.1,366.5L220.1,366.5z M223.9,365.4c-0.4,0-0.7,0.2-0.7,0.6
	c0,0.4,0.2,0.7,0.6,0.7L223.9,365.4L223.9,365.4z M224.4,366.7c0.4,0,0.7-0.2,0.7-0.6c0-0.4-0.2-0.7-0.6-0.7L224.4,366.7z
	 M228.3,366c-0.4,0-0.7,0.2-0.7,0.5s0.2,0.7,0.5,0.7L228.3,366L228.3,366z M228.7,367.3c0.4,0,0.7-0.2,0.7-0.5s-0.2-0.7-0.5-0.7
	L228.7,367.3z M232.6,366.7c-0.4-0.1-0.7,0.2-0.7,0.5c-0.1,0.4,0.2,0.7,0.5,0.8L232.6,366.7L232.6,366.7z M233,368
	c0.4,0.1,0.7-0.2,0.8-0.5c0.1-0.4-0.2-0.7-0.5-0.8L233,368L233,368z M237,367.4c-0.4-0.1-0.7,0.2-0.8,0.5c-0.1,0.4,0.2,0.7,0.5,0.8
	L237,367.4L237,367.4z M237.4,368.8c0.4,0.1,0.7-0.2,0.8-0.5c0.1-0.4-0.2-0.7-0.5-0.8L237.4,368.8L237.4,368.8z M241.3,368.1
	c-0.4,0-0.7,0.2-0.7,0.5c-0.1,0.4,0.2,0.7,0.6,0.7L241.3,368.1L241.3,368.1z M241.8,369.5c0.4,0,0.7-0.2,0.7-0.5
	c0.1-0.4-0.2-0.7-0.6-0.7L241.8,369.5z M246.4,369.2c-0.3-0.1-0.7,0.1-0.8,0.5c-0.1,0.3,0.1,0.7,0.5,0.8L246.4,369.2L246.4,369.2z
	 M246.8,370.6c0.3,0.1,0.7-0.1,0.8-0.5c0.1-0.3-0.1-0.7-0.4-0.8L246.8,370.6L246.8,370.6z M251.4,370.7c-0.3-0.1-0.7,0-0.8,0.4
	c-0.1,0.3,0.1,0.7,0.4,0.8L251.4,370.7z M251.6,372.2c0.3,0.1,0.7,0,0.8-0.4c0.1-0.3,0-0.7-0.4-0.8L251.6,372.2L251.6,372.2z
	 M256.2,373.1c-0.3-0.2-0.7-0.2-0.9,0.1c-0.2,0.3-0.2,0.7,0.1,0.9L256.2,373.1L256.2,373.1z M255.8,374.4c0.2,0.3,0.6,0.3,0.9,0.1
	c0.3-0.2,0.3-0.6,0.1-0.9L255.8,374.4L255.8,374.4z M258.6,377.1c-0.1-0.3-0.5-0.5-0.8-0.4c-0.3,0.1-0.5,0.5-0.4,0.8L258.6,377.1
	L258.6,377.1z M257.6,378.1c0.1,0.3,0.5,0.5,0.8,0.4c0.3-0.1,0.5-0.5,0.4-0.8L257.6,378.1L257.6,378.1z M260,381.2
	c-0.1-0.3-0.4-0.5-0.8-0.4c-0.3,0.1-0.5,0.5-0.4,0.8L260,381.2L260,381.2z M258.9,382.1c0.1,0.3,0.4,0.5,0.8,0.5
	c0.3-0.1,0.6-0.5,0.5-0.8L258.9,382.1L258.9,382.1z M261,385.4c-0.1-0.4-0.4-0.6-0.8-0.5c-0.4,0.1-0.6,0.4-0.5,0.8L261,385.4
	L261,385.4z M259.9,386.3c0.1,0.4,0.4,0.6,0.8,0.5c0.4-0.1,0.6-0.4,0.5-0.8L259.9,386.3L259.9,386.3z M261.9,389.7
	c-0.1-0.4-0.4-0.6-0.7-0.5s-0.6,0.4-0.5,0.7L261.9,389.7z M260.7,390.5c0.1,0.4,0.4,0.6,0.8,0.5c0.4-0.1,0.6-0.4,0.5-0.8
	L260.7,390.5L260.7,390.5z M263.2,394.4c-0.1-0.3-0.5-0.5-0.8-0.4c-0.3,0.1-0.5,0.5-0.4,0.8L263.2,394.4L263.2,394.4z M262.3,395.5
	c0.1,0.3,0.5,0.5,0.8,0.4c0.3-0.1,0.5-0.5,0.4-0.8L262.3,395.5L262.3,395.5z M265.1,399c-0.1-0.3-0.5-0.5-0.9-0.3s-0.5,0.5-0.3,0.9
	L265.1,399L265.1,399z M264.3,400.2c0.1,0.3,0.5,0.5,0.9,0.3c0.3-0.1,0.5-0.5,0.3-0.9L264.3,400.2L264.3,400.2z M267.3,403.5
	c-0.2-0.3-0.6-0.4-0.9-0.3c-0.3,0.2-0.4,0.5-0.3,0.9L267.3,403.5z M266.5,404.8c0.2,0.3,0.5,0.4,0.9,0.3c0.3-0.2,0.4-0.5,0.3-0.9
	L266.5,404.8z M269.8,407.9c-0.2-0.3-0.6-0.4-0.9-0.2c-0.3,0.2-0.4,0.6-0.2,0.9L269.8,407.9z M269,409.2c0.2,0.3,0.6,0.4,0.9,0.2
	c0.3-0.2,0.4-0.6,0.2-0.9L269,409.2z M271.8,412.3c-0.1-0.3-0.5-0.5-0.8-0.4c-0.3,0.1-0.5,0.5-0.4,0.8L271.8,412.3L271.8,412.3z
	 M270.8,413.4c0.1,0.3,0.5,0.5,0.8,0.4c0.3-0.1,0.5-0.5,0.4-0.8L270.8,413.4L270.8,413.4z M273.2,416.9c-0.1-0.4-0.4-0.5-0.8-0.5
	c-0.4,0.1-0.6,0.4-0.5,0.8L273.2,416.9L273.2,416.9z M272.1,417.8c0.1,0.4,0.4,0.6,0.8,0.5c0.4-0.1,0.6-0.4,0.5-0.8L272.1,417.8z
	 M274.2,421.5c-0.1-0.4-0.4-0.6-0.8-0.5c-0.4,0.1-0.6,0.4-0.5,0.8L274.2,421.5L274.2,421.5z M273.1,422.4c0.1,0.4,0.4,0.6,0.8,0.5
	s0.6-0.4,0.5-0.8L273.1,422.4z M275,426.2c0-0.4-0.4-0.6-0.7-0.5c-0.4,0-0.6,0.4-0.5,0.7L275,426.2L275,426.2z M273.8,427
	c0,0.4,0.4,0.6,0.7,0.5c0.4,0,0.6-0.4,0.6-0.7L273.8,427z M275.5,430.9c0-0.4-0.4-0.6-0.7-0.6s-0.6,0.4-0.6,0.7L275.5,430.9
	L275.5,430.9z M274.3,431.6c0,0.4,0.4,0.6,0.7,0.6c0.4,0,0.6-0.4,0.6-0.7L274.3,431.6L274.3,431.6z M276,435c0-0.4-0.4-0.6-0.7-0.6
	c-0.4,0-0.6,0.4-0.6,0.7L276,435L276,435z M274.8,435.8c0,0.4,0.4,0.6,0.7,0.6s0.6-0.4,0.6-0.7L274.8,435.8z M276.5,439.1
	c-0.1-0.4-0.4-0.6-0.7-0.5c-0.4,0.1-0.6,0.4-0.5,0.7L276.5,439.1z M275.4,439.9c0.1,0.4,0.4,0.6,0.8,0.5c0.4-0.1,0.6-0.4,0.5-0.8
	L275.4,439.9L275.4,439.9z M277.4,443.1c-0.1-0.4-0.4-0.6-0.8-0.5c-0.4,0.1-0.6,0.4-0.5,0.8L277.4,443.1z M276.3,444
	c0.1,0.4,0.4,0.5,0.8,0.5s0.5-0.4,0.5-0.8L276.3,444L276.3,444z M278.5,447.1c-0.1-0.3-0.5-0.5-0.8-0.4s-0.5,0.5-0.4,0.8
	L278.5,447.1L278.5,447.1z M277.5,448.1c0.1,0.3,0.5,0.5,0.8,0.4c0.3-0.1,0.5-0.5,0.4-0.8L277.5,448.1z M279.9,450.9
	c-0.1-0.3-0.5-0.5-0.8-0.4s-0.5,0.5-0.4,0.8L279.9,450.9L279.9,450.9z M279,452c0.1,0.3,0.5,0.5,0.8,0.4s0.5-0.5,0.4-0.8L279,452
	L279,452z M281.5,454.8c-0.1-0.3-0.5-0.5-0.8-0.4c-0.3,0.1-0.5,0.5-0.4,0.8L281.5,454.8z M280.6,455.9c0.1,0.3,0.5,0.5,0.9,0.3
	c0.3-0.1,0.5-0.5,0.3-0.9L280.6,455.9L280.6,455.9z M283.6,458.7c-0.2-0.3-0.6-0.4-0.9-0.1s-0.4,0.6-0.1,0.9L283.6,458.7
	L283.6,458.7z M283,460c0.2,0.3,0.6,0.3,0.9,0.1c0.3-0.2,0.3-0.6,0.1-0.9L283,460L283,460z M286.7,462c-0.3-0.2-0.7-0.2-0.9,0.1
	s-0.2,0.7,0.1,0.9L286.7,462z M286.4,463.4c0.3,0.2,0.7,0.2,0.9-0.1s0.2-0.7-0.1-0.9L286.4,463.4L286.4,463.4z M290.4,464.7
	c-0.3-0.2-0.7-0.1-0.9,0.2s-0.1,0.7,0.2,0.9L290.4,464.7L290.4,464.7z M290.3,466.1c0.3,0.2,0.7,0.1,0.9-0.2s0.1-0.7-0.2-0.9
	L290.3,466.1L290.3,466.1z M294.4,466.8c-0.3-0.1-0.7,0-0.9,0.3c-0.1,0.3,0,0.7,0.3,0.9L294.4,466.8L294.4,466.8z M294.5,468.3
	c0.3,0.1,0.7,0,0.9-0.3c0.1-0.3,0-0.7-0.3-0.9L294.5,468.3L294.5,468.3z M298.7,468.6c-0.3-0.1-0.7,0-0.8,0.4s0,0.7,0.4,0.8
	L298.7,468.6L298.7,468.6z M298.9,470.1c0.3,0.1,0.7,0,0.8-0.4c0.1-0.3,0-0.7-0.4-0.8L298.9,470.1z M303.7,471.3
	c-0.3-0.2-0.7-0.2-0.9,0.1s-0.2,0.7,0.1,0.9L303.7,471.3L303.7,471.3z M303.5,472.8c0.3,0.2,0.7,0.2,0.9,0s0.2-0.7,0-0.9
	L303.5,472.8L303.5,472.8z M307,476.2c-0.1-0.4-0.4-0.5-0.8-0.5c-0.4,0.1-0.5,0.4-0.5,0.8L307,476.2L307,476.2z M305.9,477.2
	c0,0.4,0.4,0.6,0.7,0.5s0.6-0.4,0.5-0.7L305.9,477.2L305.9,477.2z M307.4,481.7c0-0.4-0.3-0.6-0.6-0.7c-0.4,0-0.6,0.3-0.7,0.6
	L307.4,481.7L307.4,481.7z M306.1,482.5c0,0.4,0.3,0.7,0.6,0.7s0.7-0.3,0.7-0.6L306.1,482.5L306.1,482.5z M307.1,487.1
	c0-0.4-0.3-0.6-0.6-0.7c-0.4,0-0.6,0.3-0.7,0.6L307.1,487.1L307.1,487.1z M305.9,487.8c0,0.4,0.3,0.6,0.7,0.6c0.4,0,0.6-0.3,0.6-0.7
	L305.9,487.8L305.9,487.8z M307.7,491.5c-0.1-0.3-0.4-0.6-0.7-0.5c-0.4,0.1-0.6,0.4-0.5,0.8L307.7,491.5z M306.5,492.3
	c0.1,0.3,0.4,0.6,0.8,0.5c0.4-0.1,0.6-0.4,0.5-0.8L306.5,492.3L306.5,492.3z M308.4,495.9c-0.1-0.3-0.4-0.6-0.7-0.5
	c-0.4,0.1-0.6,0.4-0.5,0.7L308.4,495.9L308.4,495.9z M307.3,496.7c0,0.3,0.4,0.6,0.7,0.5c0.4,0,0.6-0.4,0.5-0.7L307.3,496.7z
	 M309,500.3c0-0.3-0.4-0.6-0.7-0.6s-0.6,0.4-0.6,0.7L309,500.3z M307.8,501.1c0,0.3,0.4,0.6,0.7,0.6c0.4,0,0.6-0.3,0.6-0.7
	L307.8,501.1L307.8,501.1z M309.3,504.9c0-0.4-0.3-0.6-0.6-0.6c-0.4,0-0.6,0.3-0.6,0.7L309.3,504.9L309.3,504.9z M308.1,505.5
	c0,0.4,0.3,0.7,0.6,0.7c0.4,0,0.6-0.3,0.6-0.6L308.1,505.5L308.1,505.5z M309.3,509.4c0-0.4-0.3-0.7-0.6-0.7c-0.4,0-0.6,0.3-0.7,0.6
	L309.3,509.4L309.3,509.4z M308,510.1c0,0.4,0.3,0.7,0.6,0.7c0.4,0,0.6-0.3,0.7-0.6L308,510.1z M309.3,514c0-0.4-0.3-0.6-0.6-0.6
	s-0.6,0.3-0.6,0.7L309.3,514L309.3,514z M308,514.6c0,0.4,0.3,0.6,0.6,0.6s0.6-0.3,0.6-0.7L308,514.6L308,514.6z M309.4,518.5
	c0-0.4-0.3-0.6-0.7-0.6s-0.6,0.3-0.6,0.7L309.4,518.5L309.4,518.5z M308.1,519.2c0,0.4,0.3,0.6,0.7,0.6c0.4,0,0.6-0.3,0.6-0.7
	L308.1,519.2L308.1,519.2z M309.8,523c0-0.3-0.4-0.6-0.7-0.5c-0.4,0-0.6,0.4-0.5,0.7L309.8,523L309.8,523z M308.6,523.8
	c0.1,0.3,0.4,0.6,0.8,0.5s0.6-0.4,0.5-0.8L308.6,523.8z M311,527.1c-0.2-0.3-0.5-0.4-0.9-0.3s-0.4,0.5-0.3,0.9L311,527.1L311,527.1z
	 M310.2,528.3c0.2,0.3,0.6,0.4,0.9,0.2c0.3-0.2,0.4-0.6,0.2-0.9L310.2,528.3L310.2,528.3z M313.6,529.8c-0.3-0.2-0.7-0.1-0.9,0.2
	c-0.2,0.3-0.1,0.7,0.2,0.9L313.6,529.8L313.6,529.8z M313.5,531.2c0.3,0.2,0.7,0,0.9-0.3c0.2-0.3,0-0.7-0.3-0.9L313.5,531.2
	L313.5,531.2z M317.2,531.3c-0.3-0.1-0.7,0.1-0.8,0.4c-0.1,0.3,0.1,0.7,0.4,0.8L317.2,531.3L317.2,531.3z M317.4,532.7
	c0.3,0.1,0.7-0.1,0.8-0.5c0.1-0.3-0.1-0.7-0.5-0.8L317.4,532.7L317.4,532.7z M321.2,532.3c-0.4-0.1-0.7,0.2-0.8,0.5s0.1,0.7,0.5,0.8
	L321.2,532.3z M321.5,533.6c0.4,0.1,0.7-0.2,0.8-0.5c0.1-0.3-0.2-0.7-0.5-0.8L321.5,533.6L321.5,533.6z M325.2,533.1
	c-0.4-0.1-0.7,0.1-0.8,0.5s0.1,0.7,0.5,0.8L325.2,533.1L325.2,533.1z M325.5,534.5c0.3,0.1,0.7-0.1,0.8-0.4c0.1-0.3-0.1-0.7-0.4-0.8
	L325.5,534.5z M329.6,534.6c-0.3-0.1-0.7,0-0.8,0.4c-0.1,0.3,0,0.7,0.4,0.8L329.6,534.6z M329.7,536.1c0.3,0.1,0.7,0,0.8-0.3
	c0.1-0.3,0-0.7-0.4-0.8L329.7,536.1z M333.8,536.5c-0.3-0.2-0.7,0-0.9,0.3s0,0.7,0.3,0.9L333.8,536.5z M333.9,537.9
	c0.3,0.2,0.7,0,0.9-0.3c0.1-0.3,0-0.7-0.3-0.9L333.9,537.9z M338,538.6c-0.3-0.2-0.7-0.1-0.9,0.2c-0.2,0.3-0.1,0.7,0.2,0.9
	L338,538.6L338,538.6z M337.8,540.1c0.3,0.2,0.7,0.1,0.9-0.2c0.2-0.3,0.1-0.7-0.2-0.9L337.8,540.1z M341.8,539.6
	c-0.4,0-0.6,0.4-0.6,0.7c0,0.3,0.4,0.6,0.7,0.6L341.8,539.6L341.8,539.6z M342.6,540.7c0.4-0.1,0.6-0.4,0.5-0.8
	c-0.1-0.3-0.4-0.6-0.8-0.5L342.6,540.7z M345.6,538c-0.3,0.2-0.4,0.6-0.1,0.9c0.2,0.3,0.6,0.4,0.9,0.2L345.6,538L345.6,538z
	 M346.9,538.6c0.3-0.2,0.3-0.6,0.1-0.9c-0.2-0.3-0.6-0.3-0.9-0.1L346.9,538.6L346.9,538.6z M348.6,535c-0.2,0.3-0.2,0.7,0.1,0.9
	c0.3,0.2,0.7,0.2,0.9-0.1L348.6,535L348.6,535z M350,535.2c0.2-0.3,0.1-0.7-0.1-0.9s-0.7-0.2-0.9,0.1L350,535.2L350,535.2z
	 M351.3,531.2c-0.2,0.3-0.1,0.7,0.2,0.9c0.3,0.2,0.7,0.1,0.9-0.2L351.3,531.2L351.3,531.2z M352.8,531.4c0.2-0.3,0.1-0.7-0.2-0.9
	c-0.3-0.2-0.7-0.1-0.9,0.2L352.8,531.4L352.8,531.4z M353.9,527.4c-0.2,0.3-0.1,0.7,0.2,0.9c0.3,0.2,0.7,0.1,0.9-0.2L353.9,527.4
	L353.9,527.4z M355.4,527.6c0.2-0.3,0.1-0.7-0.2-0.9s-0.7-0.1-0.9,0.2L355.4,527.6L355.4,527.6z M356.5,523.5
	c-0.2,0.3-0.1,0.7,0.2,0.9c0.3,0.2,0.7,0.1,0.9-0.2L356.5,523.5z M358,523.7c0.2-0.3,0.1-0.7-0.2-0.9c-0.3-0.2-0.7-0.1-0.9,0.2
	L358,523.7z M359.1,519.6c-0.2,0.3-0.1,0.7,0.2,0.9c0.3,0.2,0.7,0.1,0.9-0.2L359.1,519.6z M360.6,519.8c0.2-0.3,0.1-0.7-0.2-0.9
	c-0.3-0.2-0.7-0.1-0.9,0.2L360.6,519.8z M361.7,515.7c-0.2,0.3-0.1,0.7,0.2,0.9c0.3,0.2,0.7,0.1,0.9-0.2L361.7,515.7L361.7,515.7z
	 M363.2,515.9c0.2-0.3,0.1-0.7-0.2-0.9s-0.7-0.1-0.9,0.2L363.2,515.9L363.2,515.9z M364.3,511.9c-0.2,0.3-0.1,0.7,0.2,0.9
	c0.3,0.2,0.7,0.1,0.9-0.2L364.3,511.9L364.3,511.9z M365.8,512c0.2-0.3,0.1-0.7-0.2-0.9c-0.3-0.2-0.7-0.1-0.9,0.2L365.8,512
	L365.8,512z M367.3,508c-0.3,0.2-0.3,0.7,0,0.9c0.2,0.3,0.6,0.3,0.9,0L367.3,508L367.3,508z M368.3,508.9c0.4,0,0.6-0.3,0.6-0.6
	s-0.3-0.7-0.6-0.7L368.3,508.9L368.3,508.9z M371.8,508.5c-0.3-0.1-0.7,0.1-0.8,0.4c-0.1,0.3,0.1,0.7,0.4,0.8L371.8,508.5
	L371.8,508.5z M371.9,509.9c0.3,0.1,0.7-0.1,0.8-0.4c0.1-0.3-0.1-0.7-0.4-0.8L371.9,509.9L371.9,509.9z M375.6,510
	c-0.3-0.1-0.7,0-0.8,0.3c-0.1,0.3,0,0.7,0.4,0.8L375.6,510L375.6,510z M375.6,511.4c0.3,0.1,0.7,0,0.9-0.3s0-0.7-0.3-0.8
	L375.6,511.4z M379.3,511.7c-0.3-0.2-0.7-0.1-0.9,0.3c-0.2,0.3-0.1,0.7,0.3,0.9L379.3,511.7L379.3,511.7z M379.2,513.1
	c0.3,0.2,0.7,0,0.9-0.3c0.2-0.3,0-0.7-0.3-0.9L379.2,513.1z M382.9,513.5c-0.3-0.2-0.7,0-0.9,0.3s0,0.7,0.3,0.9L382.9,513.5z
	 M382.9,514.9c0.3,0.2,0.7,0,0.9-0.3s0-0.7-0.3-0.9L382.9,514.9L382.9,514.9z M386.7,515.2c-0.3-0.2-0.7,0-0.9,0.3
	c-0.1,0.3,0,0.7,0.3,0.8L386.7,515.2L386.7,515.2z M386.7,516.6c0.3,0.2,0.7,0,0.9-0.3c0.1-0.3,0-0.7-0.3-0.8L386.7,516.6z
	 M390.4,516.9c-0.3-0.2-0.7,0-0.9,0.3c-0.1,0.3,0,0.7,0.3,0.8L390.4,516.9z M390.4,518.3c0.3,0.2,0.7,0,0.9-0.3
	c0.1-0.3,0-0.7-0.3-0.8L390.4,518.3L390.4,518.3z M394.2,518.6c-0.3-0.2-0.7,0-0.9,0.3c-0.1,0.3,0,0.7,0.3,0.8L394.2,518.6
	L394.2,518.6z M394.2,520c0.3,0.2,0.7,0,0.9-0.3s0-0.7-0.3-0.9L394.2,520L394.2,520z M397.9,520.4c-0.3-0.2-0.7,0-0.9,0.3
	c-0.2,0.3,0,0.7,0.3,0.9L397.9,520.4L397.9,520.4z M397.9,521.8c0.3,0.2,0.7,0,0.9-0.3c0.2-0.3,0-0.7-0.3-0.9L397.9,521.8
	L397.9,521.8z M402.2,522.9c-0.3-0.2-0.7-0.1-0.9,0.2s-0.1,0.7,0.2,0.9L402.2,522.9z M402.1,524.4c0.3,0.2,0.7,0.1,0.9-0.2
	c0.2-0.3,0.1-0.7-0.2-0.9L402.1,524.4L402.1,524.4z M406.4,525.7c-0.3-0.2-0.7-0.1-0.9,0.2c-0.2,0.3-0.1,0.7,0.2,0.9L406.4,525.7
	L406.4,525.7z M406.3,527.2c0.3,0.2,0.7,0.1,0.9-0.2c0.2-0.3,0.1-0.7-0.2-0.9L406.3,527.2L406.3,527.2z M410.5,528.6
	c-0.3-0.2-0.7-0.2-0.9,0.1c-0.2,0.3-0.1,0.7,0.1,0.9L410.5,528.6L410.5,528.6z M410.4,530.1c0.3,0.2,0.7,0.2,0.9-0.1
	c0.2-0.3,0.1-0.7-0.1-0.9L410.4,530.1L410.4,530.1z M414.6,531.8c-0.2-0.2-0.7-0.2-0.9,0s-0.2,0.7,0,0.9L414.6,531.8z M415,533
	c0.3-0.2,0.4-0.6,0.2-0.9c-0.2-0.3-0.6-0.4-0.9-0.2L415,533L415,533z M417,529c-0.2,0.3-0.2,0.7,0.1,0.9c0.3,0.2,0.7,0.2,0.9-0.1
	L417,529L417,529z M418.5,529.4c0.2-0.3,0.2-0.7-0.1-0.9c-0.3-0.2-0.7-0.2-0.9,0.1L418.5,529.4L418.5,529.4z M420.1,525.3
	c-0.2,0.3-0.2,0.7,0.1,0.9c0.3,0.2,0.7,0.2,0.9-0.1L420.1,525.3L420.1,525.3z M421.6,525.6c0.2-0.3,0.2-0.7-0.1-0.9
	s-0.7-0.2-0.9,0.1L421.6,525.6L421.6,525.6z M423.1,521.5c-0.2,0.3-0.1,0.7,0.1,0.9c0.3,0.2,0.7,0.2,0.9-0.1L423.1,521.5z
	 M424.5,521.7c0.2-0.3,0.1-0.7-0.1-0.9s-0.7-0.2-0.9,0.1L424.5,521.7L424.5,521.7z M425.8,517.6c-0.2,0.3-0.1,0.7,0.2,0.9
	c0.3,0.2,0.7,0.1,0.9-0.2L425.8,517.6z M427.3,517.5c0.1-0.3,0-0.7-0.4-0.8c-0.3-0.1-0.7,0-0.8,0.4L427.3,517.5L427.3,517.5z
	 M427.1,513.1c-0.1,0.3,0.1,0.7,0.5,0.8s0.7-0.1,0.8-0.5L427.1,513.1L427.1,513.1z M428.5,512.8c0.1-0.3-0.1-0.7-0.5-0.8
	c-0.4-0.1-0.7,0.1-0.8,0.5L428.5,512.8L428.5,512.8z M428.1,508.5c-0.1,0.3,0.1,0.7,0.5,0.8c0.4,0.1,0.7-0.2,0.8-0.5L428.1,508.5
	L428.1,508.5z M429.5,508.1c0.1-0.3-0.1-0.7-0.5-0.8c-0.4-0.1-0.7,0.2-0.8,0.5L429.5,508.1L429.5,508.1z M429.1,503.8
	c-0.1,0.3,0.1,0.7,0.5,0.8c0.4,0.1,0.7-0.2,0.8-0.5L429.1,503.8L429.1,503.8z M430.5,503.4c0.1-0.3-0.1-0.7-0.5-0.8
	c-0.4-0.1-0.7,0.2-0.8,0.5L430.5,503.4L430.5,503.4z M430.2,499.1c-0.1,0.3,0.1,0.7,0.5,0.8c0.4,0.1,0.7-0.1,0.8-0.5L430.2,499.1
	L430.2,499.1z M431.6,498.7c0.1-0.3-0.1-0.7-0.5-0.8s-0.7,0.1-0.8,0.5L431.6,498.7L431.6,498.7z M431.4,494.4
	c-0.1,0.3,0.1,0.7,0.4,0.8s0.7-0.1,0.8-0.4L431.4,494.4L431.4,494.4z M432.8,494.2c0.1-0.3-0.1-0.7-0.4-0.8
	c-0.3-0.1-0.7,0.1-0.8,0.4L432.8,494.2L432.8,494.2z M432.6,490c-0.1,0.3,0.1,0.7,0.5,0.8c0.3,0.1,0.7-0.1,0.8-0.5L432.6,490
	L432.6,490z M434.1,489.6c0.1-0.3-0.1-0.7-0.5-0.8c-0.4-0.1-0.7,0.1-0.8,0.5L434.1,489.6L434.1,489.6z M433.7,485.4
	c-0.1,0.4,0.1,0.7,0.5,0.8c0.4,0.1,0.7-0.1,0.8-0.5L433.7,485.4L433.7,485.4z M435.1,485c0.1-0.4-0.1-0.7-0.5-0.8s-0.7,0.1-0.8,0.5
	L435.1,485z M434.6,480.9c-0.1,0.4,0.2,0.7,0.5,0.7s0.7-0.2,0.7-0.5L434.6,480.9z M435.9,480.4c0-0.4-0.2-0.7-0.5-0.7
	c-0.4,0-0.7,0.2-0.7,0.5L435.9,480.4L435.9,480.4z M435.2,476.3c0,0.4,0.2,0.7,0.6,0.7s0.7-0.2,0.7-0.6L435.2,476.3L435.2,476.3z
	 M436.5,475.7c0-0.4-0.2-0.7-0.6-0.7c-0.4,0-0.7,0.2-0.7,0.6L436.5,475.7L436.5,475.7z M435.3,471.7c0,0.4,0.3,0.6,0.7,0.6
	s0.6-0.3,0.6-0.7L435.3,471.7L435.3,471.7z M436.6,471c0-0.4-0.3-0.6-0.7-0.6c-0.4,0-0.6,0.3-0.6,0.7L436.6,471L436.6,471z
	 M435.2,466.8c0,0.4,0.3,0.6,0.6,0.7s0.6-0.3,0.7-0.6L435.2,466.8z M436.5,466.2c0-0.4-0.3-0.7-0.6-0.7c-0.4,0-0.7,0.3-0.7,0.6
	L436.5,466.2L436.5,466.2z M436.2,461.9c-0.1,0.3,0.1,0.7,0.4,0.8s0.7-0.1,0.8-0.4L436.2,461.9L436.2,461.9z M437.6,461.5
	c0-0.4-0.2-0.7-0.6-0.7c-0.4,0-0.7,0.2-0.7,0.6L437.6,461.5L437.6,461.5z M435.9,457.8c0.1,0.4,0.4,0.6,0.8,0.5
	c0.4-0.1,0.6-0.4,0.5-0.8L435.9,457.8L435.9,457.8z M437,457c-0.1-0.4-0.4-0.6-0.8-0.5c-0.4,0.1-0.6,0.4-0.5,0.8L437,457L437,457z
	 M434.8,453.6c0.1,0.4,0.4,0.5,0.8,0.5s0.5-0.4,0.5-0.8L434.8,453.6L434.8,453.6z M435.9,452.7c-0.1-0.4-0.4-0.5-0.8-0.5
	c-0.4,0.1-0.5,0.4-0.5,0.8L435.9,452.7z M433.8,449.3c0.1,0.4,0.4,0.6,0.8,0.5c0.4-0.1,0.6-0.4,0.5-0.8L433.8,449.3L433.8,449.3z
	 M434.9,448.4c-0.1-0.4-0.4-0.6-0.8-0.5s-0.6,0.4-0.5,0.8L434.9,448.4L434.9,448.4z M433.1,444.9c0,0.4,0.3,0.6,0.6,0.6
	s0.6-0.3,0.6-0.6L433.1,444.9L433.1,444.9z M434.4,444.2c0-0.4-0.2-0.7-0.6-0.7s-0.7,0.2-0.7,0.6L434.4,444.2L434.4,444.2z
	 M433.4,439.9c0,0.4,0.2,0.7,0.6,0.7s0.7-0.2,0.7-0.6L433.4,439.9L433.4,439.9z M434.8,439.3c0-0.4-0.2-0.7-0.6-0.7
	c-0.4,0-0.7,0.2-0.7,0.6L434.8,439.3L434.8,439.3z M433.9,434.9c0,0.4,0.2,0.7,0.6,0.7c0.4,0,0.7-0.2,0.7-0.6L433.9,434.9
	L433.9,434.9z M435.3,434.4c0-0.4-0.2-0.7-0.6-0.7c-0.4,0-0.7,0.2-0.7,0.6L435.3,434.4L435.3,434.4z M434.5,430
	c0,0.4,0.2,0.7,0.6,0.7c0.4,0,0.7-0.2,0.7-0.6L434.5,430L434.5,430z M435.9,429.5c0-0.4-0.2-0.7-0.5-0.7c-0.4,0-0.7,0.2-0.7,0.5
	L435.9,429.5L435.9,429.5z M435.2,425.1c-0.1,0.4,0.2,0.7,0.5,0.7s0.7-0.2,0.7-0.5L435.2,425.1z M436.6,424.6
	c0.1-0.4-0.2-0.7-0.5-0.7s-0.7,0.2-0.7,0.5L436.6,424.6z M436.1,420.2c-0.1,0.4,0.1,0.7,0.5,0.8c0.4,0.1,0.7-0.1,0.8-0.5
	L436.1,420.2L436.1,420.2z M437.6,419.8c0.1-0.4-0.1-0.7-0.5-0.8s-0.7,0.1-0.8,0.5L437.6,419.8z M437.1,416
	c-0.1,0.4,0.1,0.7,0.5,0.8s0.7-0.1,0.8-0.5L437.1,416L437.1,416z M438.5,415.6c0.1-0.4-0.1-0.7-0.5-0.8s-0.7,0.2-0.8,0.5
	L438.5,415.6z M437.9,411.8c0,0.4,0.2,0.7,0.5,0.7c0.4,0,0.7-0.2,0.7-0.5L437.9,411.8L437.9,411.8z M439.2,411.3
	c0-0.4-0.2-0.7-0.5-0.7c-0.4,0-0.7,0.2-0.7,0.5L439.2,411.3L439.2,411.3z M438.3,407.5c0,0.4,0.2,0.7,0.6,0.7c0.4,0,0.7-0.2,0.7-0.6
	L438.3,407.5L438.3,407.5z M439.6,407c0-0.4-0.3-0.7-0.6-0.7c-0.4,0-0.7,0.3-0.7,0.6L439.6,407L439.6,407z M438.4,403.3
	c0,0.4,0.3,0.6,0.7,0.6c0.4,0,0.6-0.3,0.6-0.7L438.4,403.3L438.4,403.3z M439.7,402.6c0-0.4-0.3-0.6-0.7-0.6c-0.4,0-0.6,0.3-0.6,0.7
	L439.7,402.6L439.7,402.6z M438,399.1c0,0.4,0.4,0.6,0.7,0.5c0.4,0,0.6-0.4,0.5-0.7L438,399.1L438,399.1z M439.2,398.3
	c0-0.4-0.4-0.6-0.7-0.5c-0.4,0-0.6,0.4-0.5,0.7L439.2,398.3L439.2,398.3z M437.2,394.9c0.1,0.4,0.4,0.5,0.8,0.5
	c0.4-0.1,0.5-0.4,0.5-0.8L437.2,394.9L437.2,394.9z M438.3,394c-0.1-0.3-0.4-0.5-0.8-0.5c-0.3,0.1-0.5,0.4-0.5,0.8L438.3,394
	L438.3,394z M436.1,390.6c0.1,0.4,0.4,0.6,0.8,0.5c0.4-0.1,0.6-0.4,0.5-0.8L436.1,390.6z M437.2,389.6c-0.1-0.4-0.4-0.6-0.8-0.5
	c-0.4,0.1-0.6,0.4-0.5,0.8L437.2,389.6L437.2,389.6z M435.1,386.1c0.1,0.4,0.4,0.6,0.8,0.5c0.4-0.1,0.6-0.4,0.5-0.8L435.1,386.1
	L435.1,386.1z M436.2,385.2c-0.1-0.4-0.4-0.6-0.8-0.5c-0.4,0.1-0.6,0.4-0.5,0.8L436.2,385.2L436.2,385.2z M434.1,381.7
	c0.1,0.4,0.4,0.6,0.8,0.5c0.4-0.1,0.6-0.4,0.5-0.8L434.1,381.7L434.1,381.7z M435.3,380.8c-0.1-0.4-0.4-0.6-0.8-0.5
	c-0.4,0.1-0.6,0.4-0.5,0.8L435.3,380.8L435.3,380.8z M433.3,377.2c0.1,0.4,0.4,0.6,0.8,0.5s0.6-0.4,0.5-0.8L433.3,377.2L433.3,377.2
	z M434.4,376.4c-0.1-0.4-0.4-0.6-0.7-0.5c-0.4,0.1-0.6,0.4-0.5,0.7L434.4,376.4L434.4,376.4z M432.6,372.7c0,0.4,0.4,0.6,0.7,0.5
	c0.4,0,0.6-0.4,0.5-0.7L432.6,372.7L432.6,372.7z M433.7,371.9c-0.1-0.4-0.4-0.6-0.7-0.5c-0.4,0.1-0.6,0.4-0.5,0.7L433.7,371.9
	L433.7,371.9z M431.5,368.4c0.1,0.3,0.5,0.5,0.8,0.4c0.3-0.1,0.5-0.5,0.4-0.8L431.5,368.4L431.5,368.4z M432.5,367.4
	c-0.1-0.3-0.5-0.5-0.8-0.4c-0.3,0.1-0.5,0.5-0.4,0.8L432.5,367.4z M429.9,364.2c0.1,0.3,0.5,0.5,0.8,0.4c0.3-0.1,0.5-0.5,0.4-0.8
	L429.9,364.2z M430.9,363.1c-0.1-0.3-0.5-0.5-0.8-0.4c-0.3,0.1-0.5,0.5-0.4,0.8L430.9,363.1L430.9,363.1z M428.1,360.1
	c0.1,0.3,0.5,0.5,0.9,0.3c0.3-0.1,0.5-0.5,0.3-0.9L428.1,360.1L428.1,360.1z M429,358.9c-0.1-0.3-0.5-0.5-0.9-0.3
	c-0.3,0.1-0.5,0.5-0.3,0.9L429,358.9L429,358.9z M426.1,356c0.2,0.3,0.6,0.4,0.9,0.3c0.3-0.2,0.4-0.6,0.3-0.9L426.1,356L426.1,356z
	 M426.9,354.8c-0.2-0.3-0.6-0.4-0.9-0.2s-0.4,0.6-0.2,0.9L426.9,354.8z M423.8,352.2c0.2,0.3,0.6,0.4,0.9,0.2
	c0.3-0.2,0.4-0.6,0.2-0.9L423.8,352.2L423.8,352.2z M424.5,350.9c-0.2-0.3-0.6-0.4-0.9-0.2c-0.3,0.2-0.4,0.6-0.2,0.9L424.5,350.9
	L424.5,350.9z M421.1,348.6c0.2,0.3,0.6,0.3,0.9,0c0.3-0.2,0.3-0.6,0-0.9L421.1,348.6L421.1,348.6z M421.6,347.2
	c-0.2-0.3-0.6-0.3-0.9,0c-0.3,0.2-0.3,0.6,0,0.9L421.6,347.2L421.6,347.2z M418.1,345.3c0.2,0.3,0.6,0.3,0.9,0.1s0.3-0.6,0.1-0.9
	L418.1,345.3L418.1,345.3z M418.7,344c-0.2-0.3-0.6-0.3-0.9-0.1c-0.3,0.2-0.3,0.6-0.1,0.9L418.7,344L418.7,344z M415.4,341.8
	c0.2,0.3,0.6,0.4,0.9,0.2c0.3-0.2,0.4-0.6,0.2-0.9L415.4,341.8z M416.1,340.5c-0.2-0.3-0.6-0.4-0.9-0.2c-0.3,0.2-0.4,0.6-0.2,0.9
	L416.1,340.5L416.1,340.5z M413.1,337.9c0.2,0.3,0.5,0.4,0.9,0.3s0.4-0.5,0.3-0.9L413.1,337.9z M413.9,336.8
	c-0.2-0.3-0.5-0.5-0.9-0.3c-0.3,0.2-0.5,0.5-0.3,0.9L413.9,336.8L413.9,336.8z M411.3,333.8c0.1,0.3,0.5,0.5,0.8,0.4
	c0.3-0.1,0.5-0.5,0.4-0.8L411.3,333.8z M412.3,332.8c-0.1-0.3-0.5-0.5-0.8-0.4s-0.5,0.5-0.4,0.8L412.3,332.8L412.3,332.8z
	 M410.2,329.4c0.1,0.4,0.4,0.6,0.8,0.5c0.4-0.1,0.6-0.4,0.5-0.8L410.2,329.4L410.2,329.4z M411.3,328.6c-0.1-0.4-0.4-0.6-0.7-0.5
	c-0.4,0.1-0.6,0.4-0.5,0.7L411.3,328.6z M409.6,325c0,0.4,0.3,0.6,0.7,0.6c0.4,0,0.6-0.3,0.6-0.7L409.6,325L409.6,325z M410.9,324.3
	c0-0.4-0.3-0.6-0.7-0.6c-0.4,0-0.6,0.3-0.6,0.7L410.9,324.3L410.9,324.3z M409.3,320.3c0,0.4,0.4,0.6,0.7,0.6c0.4,0,0.6-0.4,0.6-0.7
	L409.3,320.3L409.3,320.3z M410.5,319.5c0-0.4-0.4-0.6-0.7-0.6c-0.4,0-0.6,0.4-0.6,0.7L410.5,319.5L410.5,319.5z M408.7,315.6
	c0,0.4,0.4,0.6,0.7,0.5c0.4,0,0.6-0.4,0.5-0.7L408.7,315.6L408.7,315.6z M409.9,314.7c-0.1-0.4-0.4-0.6-0.7-0.5
	c-0.4,0.1-0.6,0.4-0.5,0.7L409.9,314.7z M407.8,310.9c0.1,0.4,0.4,0.6,0.8,0.5c0.4-0.1,0.6-0.4,0.5-0.8L407.8,310.9L407.8,310.9z
	 M408.9,309.9c-0.1-0.4-0.4-0.6-0.8-0.5s-0.6,0.4-0.5,0.8L408.9,309.9z M406.7,306.3c0.1,0.3,0.5,0.5,0.8,0.4
	c0.3-0.1,0.5-0.5,0.4-0.8L406.7,306.3L406.7,306.3z M407.7,305.3c-0.1-0.3-0.5-0.5-0.8-0.4s-0.5,0.5-0.4,0.8L407.7,305.3z
	 M405.3,301.7c0.1,0.3,0.5,0.5,0.8,0.4c0.3-0.1,0.5-0.5,0.4-0.8L405.3,301.7L405.3,301.7z M406.4,300.7c-0.1-0.4-0.4-0.6-0.8-0.5
	c-0.4,0.1-0.6,0.4-0.5,0.8L406.4,300.7z M405.1,296.9c-0.1,0.4,0.2,0.7,0.5,0.8c0.4,0.1,0.7-0.2,0.8-0.5L405.1,296.9z M406.4,296.6
	c0.1-0.4-0.1-0.7-0.5-0.8c-0.4-0.1-0.7,0.1-0.8,0.5L406.4,296.6L406.4,296.6z M406.5,292.5c-0.1,0.3,0,0.7,0.3,0.9s0.7,0,0.9-0.3
	L406.5,292.5L406.5,292.5z M408,292.5c0.2-0.3,0-0.7-0.3-0.9s-0.7,0-0.9,0.3L408,292.5L408,292.5z M408.8,288.5
	c-0.2,0.3-0.1,0.7,0.2,0.9c0.3,0.2,0.7,0.1,0.9-0.2L408.8,288.5L408.8,288.5z M410.2,288.7c0.2-0.3,0.1-0.7-0.2-0.9
	c-0.3-0.2-0.7-0.1-0.9,0.2L410.2,288.7z M411.6,284.9c-0.2,0.3-0.2,0.7,0,0.9c0.3,0.2,0.7,0.2,0.9,0L411.6,284.9L411.6,284.9z
	 M413,285.2c0.2-0.3,0.2-0.7-0.1-0.9s-0.7-0.2-0.9,0.1L413,285.2z M414.2,281.5c-0.2,0.3-0.1,0.7,0.1,0.9c0.3,0.2,0.7,0.1,0.9-0.1
	L414.2,281.5z M415.6,281.7c0.2-0.3,0.1-0.7-0.1-0.9c-0.3-0.2-0.7-0.1-0.9,0.1L415.6,281.7z M416.8,278c-0.2,0.3-0.1,0.7,0.1,0.9
	c0.3,0.2,0.7,0.1,0.9-0.1L416.8,278z M418.2,278.2c0.2-0.3,0.1-0.7-0.1-0.9c-0.3-0.2-0.7-0.1-0.9,0.1L418.2,278.2L418.2,278.2z
	 M419.4,274.5c-0.2,0.3-0.1,0.7,0.1,0.9c0.3,0.2,0.7,0.1,0.9-0.1L419.4,274.5L419.4,274.5z M420.8,274.7c0.2-0.3,0.1-0.7-0.1-0.9
	c-0.3-0.2-0.7-0.1-0.9,0.1L420.8,274.7L420.8,274.7z M422,271c-0.2,0.3-0.1,0.7,0.1,0.9s0.7,0.1,0.9-0.1L422,271L422,271z
	 M423.4,271.2c0.2-0.3,0.1-0.7-0.1-0.9s-0.7-0.1-0.9,0.1L423.4,271.2L423.4,271.2z M424.5,267.5c-0.2,0.3-0.1,0.7,0.1,0.9
	s0.7,0.1,0.9-0.1L424.5,267.5L424.5,267.5z M426,267.7c0.2-0.3,0.1-0.7-0.1-0.9s-0.7-0.1-0.9,0.1L426,267.7L426,267.7z M427.1,263.9
	c-0.2,0.3-0.1,0.7,0.2,0.9c0.3,0.2,0.7,0.1,0.9-0.2L427.1,263.9L427.1,263.9z M428.5,264.1c0.2-0.3,0.1-0.7-0.2-0.9
	c-0.3-0.2-0.7-0.1-0.9,0.2L428.5,264.1L428.5,264.1z M429.7,260c-0.2,0.3-0.1,0.7,0.2,0.9s0.7,0.1,0.9-0.2L429.7,260L429.7,260z
	 M431.2,260.1c0.2-0.3,0.1-0.7-0.2-0.9s-0.7-0.1-0.9,0.2L431.2,260.1L431.2,260.1z M432.3,255.9c-0.2,0.3-0.1,0.7,0.2,0.9
	c0.3,0.2,0.7,0.1,0.9-0.2L432.3,255.9L432.3,255.9z M433.7,256c0.2-0.3,0.1-0.7-0.2-0.9s-0.7-0.1-0.9,0.2L433.7,256L433.7,256z
	 M434.6,251.7c-0.2,0.3,0,0.7,0.3,0.9s0.7,0,0.9-0.3L434.6,251.7L434.6,251.7z M436.1,251.7c0.1-0.3,0-0.7-0.3-0.9
	c-0.3-0.1-0.7,0-0.9,0.3L436.1,251.7L436.1,251.7z M436.3,247.4c-0.1,0.4,0.1,0.7,0.5,0.8c0.4,0.1,0.7-0.1,0.8-0.5L436.3,247.4
	L436.3,247.4z M437.7,247c0.1-0.4-0.2-0.7-0.5-0.7s-0.7,0.2-0.7,0.5L437.7,247z M436.9,242.9c0,0.4,0.2,0.7,0.6,0.7s0.7-0.2,0.7-0.6
	L436.9,242.9z M438.3,242.4c0-0.4-0.2-0.7-0.6-0.7s-0.7,0.2-0.7,0.6L438.3,242.4z M437.5,238.4c0,0.4,0.2,0.7,0.5,0.7
	c0.4,0,0.7-0.2,0.7-0.5L437.5,238.4L437.5,238.4z M438.9,237.9c0-0.4-0.2-0.7-0.5-0.7c-0.4,0-0.7,0.2-0.7,0.5L438.9,237.9
	L438.9,237.9z M438.3,233.8c-0.1,0.4,0.2,0.7,0.5,0.8c0.4,0.1,0.7-0.2,0.8-0.5L438.3,233.8L438.3,233.8z M439.6,233.4
	c0.1-0.4-0.2-0.7-0.5-0.8s-0.7,0.2-0.8,0.5L439.6,233.4L439.6,233.4z M439.2,229.3c-0.1,0.3,0.1,0.7,0.5,0.8s0.7-0.1,0.8-0.5
	L439.2,229.3L439.2,229.3z M440.7,229c0.1-0.3-0.1-0.7-0.5-0.8c-0.3-0.1-0.7,0.1-0.8,0.4L440.7,229L440.7,229z M440.7,224.9
	c-0.1,0.3,0,0.7,0.4,0.8s0.7,0,0.8-0.4L440.7,224.9L440.7,224.9z M442.1,224.8c0.1-0.3,0-0.7-0.3-0.9c-0.3-0.1-0.7,0-0.9,0.3
	L442.1,224.8L442.1,224.8z M442.4,221c-0.1,0.3,0,0.7,0.3,0.9s0.7,0,0.9-0.3L442.4,221z M443.8,221c0.1-0.3,0-0.7-0.3-0.9
	s-0.7,0-0.9,0.3L443.8,221z M444.1,217.2c-0.1,0.3,0,0.7,0.3,0.9s0.7,0,0.9-0.3L444.1,217.2z M445.5,217.1c0.1-0.3,0-0.7-0.3-0.9
	s-0.7,0-0.9,0.3L445.5,217.1z M446.1,212.5c-0.2,0.3,0,0.7,0.3,0.9c0.3,0.2,0.7,0.1,0.9-0.3L446.1,212.5L446.1,212.5z M447.6,212.6
	c0.2-0.3,0-0.7-0.3-0.9s-0.7-0.1-0.9,0.3L447.6,212.6L447.6,212.6z M448.4,208.5c-0.2,0.3-0.1,0.7,0.2,0.9c0.3,0.2,0.7,0.1,0.9-0.2
	L448.4,208.5L448.4,208.5z M449.8,208.6c0.2-0.3,0.1-0.7-0.2-0.9c-0.3-0.2-0.7-0.1-0.9,0.2L449.8,208.6L449.8,208.6z M450.8,204.5
	c-0.2,0.3-0.1,0.7,0.2,0.9c0.3,0.2,0.7,0.1,0.9-0.2L450.8,204.5L450.8,204.5z M452.2,204.6c0.2-0.3,0.1-0.7-0.2-0.9
	s-0.7-0.1-0.9,0.2L452.2,204.6L452.2,204.6z M453.4,200.6c-0.2,0.3-0.1,0.7,0.1,0.9c0.3,0.2,0.7,0.1,0.9-0.1L453.4,200.6
	L453.4,200.6z M454.8,200.9c0.2-0.3,0.2-0.7-0.1-0.9c-0.3-0.2-0.7-0.2-0.9,0.1L454.8,200.9L454.8,200.9z M456.6,197.1
	c-0.3,0.2-0.3,0.6-0.1,0.9s0.6,0.3,0.9,0.1L456.6,197.1L456.6,197.1z M457.9,197.8c0.3-0.2,0.4-0.6,0.2-0.9
	c-0.2-0.3-0.6-0.4-0.9-0.2L457.9,197.8L457.9,197.8z M460.8,194.5c-0.3,0.2-0.4,0.6-0.3,0.9c0.2,0.3,0.5,0.4,0.9,0.3L460.8,194.5z
	 M462,195.4c0.3-0.1,0.5-0.5,0.3-0.9s-0.5-0.5-0.9-0.3L462,195.4z M465.4,192.8c-0.3,0.1-0.5,0.4-0.5,0.8c0.1,0.3,0.4,0.6,0.8,0.5
	L465.4,192.8L465.4,192.8z M466.4,193.8c0.4-0.1,0.6-0.4,0.5-0.8c-0.1-0.4-0.4-0.6-0.8-0.5L466.4,193.8L466.4,193.8z M470.3,192
	c-0.4,0-0.6,0.3-0.6,0.7c0,0.4,0.3,0.6,0.7,0.6L470.3,192L470.3,192z M471.1,193.2c0.4,0,0.6-0.3,0.6-0.7c0-0.4-0.3-0.6-0.7-0.6
	L471.1,193.2z M16.9,288.4c0,0.1,0.1,0.2,0.1,0.3l1.2-0.5c-0.1-0.1-0.1-0.2-0.1-0.3L16.9,288.4z M18.8,292.6
	c0.1,0.2,0.2,0.4,0.3,0.6l1.1-0.6c-0.1-0.2-0.2-0.4-0.3-0.6L18.8,292.6L18.8,292.6z M21.1,296.9c0.1,0.2,0.2,0.4,0.3,0.6l1.1-0.6
	c-0.1-0.2-0.2-0.4-0.4-0.6L21.1,296.9L21.1,296.9z M23.7,301.1c0.1,0.2,0.3,0.4,0.4,0.6l1.1-0.8c-0.1-0.2-0.3-0.4-0.4-0.6
	L23.7,301.1L23.7,301.1z M27,304.9c0.1,0.1,0.2,0.2,0.3,0.2l0.8-1c-0.1-0.1-0.2-0.1-0.2-0.2L27,304.9z M27.2,305.1
	c0.1,0.1,0.2,0.1,0.3,0.2l0.8-1c-0.1-0.1-0.2-0.1-0.3-0.2L27.2,305.1z M31,307.7c0.2,0.1,0.4,0.2,0.6,0.4l0.6-1.1
	c-0.2-0.1-0.4-0.2-0.6-0.4L31,307.7L31,307.7z M35.2,310c0.2,0.1,0.4,0.2,0.6,0.3l0.6-1.1c-0.2-0.1-0.4-0.2-0.6-0.3L35.2,310z
	 M39.5,312.2c0.2,0.1,0.4,0.2,0.6,0.3l0.5-1.2c-0.2-0.1-0.4-0.2-0.6-0.3L39.5,312.2L39.5,312.2z M43.9,314.1c0.1,0,0.2,0.1,0.3,0.1
	l0.5-1.2c-0.1,0-0.2-0.1-0.3-0.1L43.9,314.1z M44.2,314.3c0.1,0,0.2,0.1,0.3,0.1l0.5-1.2c-0.1,0-0.2-0.1-0.3-0.1L44.2,314.3
	L44.2,314.3z M47.8,316.1c0.2,0.1,0.4,0.2,0.6,0.3l0.6-1.1c-0.2-0.1-0.4-0.2-0.6-0.3C48.4,315,47.8,316.1,47.8,316.1z M51.7,318.2
	c0.2,0.1,0.4,0.2,0.6,0.3l0.6-1.1c-0.2-0.1-0.4-0.2-0.5-0.3L51.7,318.2L51.7,318.2z M55.6,320.3c0.2,0.1,0.4,0.2,0.6,0.3l0.6-1.1
	c-0.2-0.1-0.4-0.2-0.5-0.3L55.6,320.3L55.6,320.3z M59.5,322.4c0.2,0.1,0.4,0.2,0.6,0.3l0.6-1.1c-0.2-0.1-0.4-0.2-0.6-0.3
	L59.5,322.4z M63.5,324.4c0.2,0.1,0.4,0.2,0.6,0.3l0.5-1.2c-0.2-0.1-0.4-0.2-0.6-0.3L63.5,324.4L63.5,324.4z M67.6,326.1
	c0.2,0.1,0.4,0.1,0.6,0.2l0.4-1.2c-0.2-0.1-0.4-0.1-0.6-0.2L67.6,326.1L67.6,326.1z M71.9,327.6c0.1,0,0.2,0,0.3,0.1l0.3-1.2
	c-0.1,0-0.2,0-0.3-0.1L71.9,327.6L71.9,327.6z M72.2,327.6c0.1,0,0.2,0,0.3,0.1l0.3-1.2c-0.1,0-0.2,0-0.3-0.1L72.2,327.6L72.2,327.6
	z M76,328.6c0.2,0,0.4,0.1,0.6,0.2l0.3-1.2c-0.2-0.1-0.4-0.1-0.6-0.2L76,328.6L76,328.6z M80.2,329.8c0.2,0.1,0.4,0.1,0.6,0.2
	l0.4-1.2c-0.2-0.1-0.4-0.1-0.6-0.2L80.2,329.8z M84.3,331.1c0.2,0.1,0.4,0.1,0.6,0.2l0.4-1.2c-0.2-0.1-0.4-0.1-0.6-0.2L84.3,331.1z
	 M88.4,332.3c0.2,0.1,0.4,0.1,0.6,0.2l0.4-1.2c-0.2-0.1-0.4-0.1-0.6-0.2L88.4,332.3z M92.5,333.7c0.2,0.1,0.4,0.1,0.6,0.2l0.4-1.2
	c-0.2-0.1-0.4-0.1-0.6-0.2L92.5,333.7z M96.6,335.1c0.2,0.1,0.4,0.1,0.6,0.2l0.4-1.2c-0.2-0.1-0.4-0.1-0.6-0.2L96.6,335.1
	L96.6,335.1z M100.6,336.6c0.1,0,0.2,0.1,0.3,0.1l0.5-1.2c-0.1,0-0.2-0.1-0.3-0.1L100.6,336.6z M100.9,336.7c0.1,0,0.2,0.1,0.2,0.1
	l0.5-1.2c-0.1,0-0.2-0.1-0.3-0.1L100.9,336.7L100.9,336.7z M104.3,338.5c0.2,0.1,0.3,0.2,0.5,0.3l0.7-1.1c-0.2-0.1-0.4-0.2-0.5-0.3
	L104.3,338.5L104.3,338.5z M108.1,340.7c0.2,0.1,0.3,0.2,0.5,0.3l0.7-1.1c-0.2-0.1-0.4-0.2-0.5-0.3L108.1,340.7z M111.8,343
	c0.2,0.1,0.3,0.2,0.5,0.3l0.7-1.1c-0.2-0.1-0.3-0.2-0.5-0.3L111.8,343z M115.5,345.2c0.2,0.1,0.4,0.2,0.5,0.3l0.7-1.1
	c-0.2-0.1-0.3-0.2-0.5-0.3L115.5,345.2z M119.2,347.4c0.2,0.1,0.4,0.2,0.5,0.3l0.6-1.1c-0.2-0.1-0.4-0.2-0.5-0.3L119.2,347.4
	L119.2,347.4z M123,349.5c0.2,0.1,0.4,0.2,0.6,0.3l0.6-1.1c-0.2-0.1-0.4-0.2-0.6-0.3L123,349.5L123,349.5z M127,351.5
	c0.2,0.1,0.4,0.2,0.6,0.3l0.5-1.2c-0.2-0.1-0.4-0.2-0.6-0.2L127,351.5L127,351.5z M131.1,353.1c0.1,0,0.2,0,0.3,0.1l0.3-1.3
	c-0.1,0-0.2,0-0.3-0.1L131.1,353.1z M131.4,353.1c0.1,0,0.2,0,0.4,0.1l0.3-1.3c-0.1,0-0.2,0-0.3-0.1L131.4,353.1L131.4,353.1z
	 M136,353.9c0.2,0,0.5,0,0.7,0.1l0.1-1.3c-0.2,0-0.5,0-0.7-0.1L136,353.9L136,353.9z M140.9,354.3c0.2,0,0.5,0,0.7,0l0.1-1.3
	c-0.2,0-0.5,0-0.7,0L140.9,354.3z M145.9,354.6c0.2,0,0.5,0,0.7,0l0.1-1.3c-0.2,0-0.5,0-0.7,0L145.9,354.6z M150.8,354.9
	c0.2,0,0.5,0,0.7,0l0.1-1.3c-0.2,0-0.5,0-0.7,0L150.8,354.9z M155.7,355.1c0.1,0,0.2,0,0.3,0l0.1-1.3c-0.1,0-0.2,0-0.4,0
	L155.7,355.1L155.7,355.1z M156.1,355.2c0.1,0,0.2,0,0.3,0l0.1-1.3c-0.1,0-0.2,0-0.3,0L156.1,355.2L156.1,355.2z M160.1,355.7
	c0.2,0,0.4,0.1,0.6,0.1l0.2-1.3c-0.2,0-0.4-0.1-0.6-0.1L160.1,355.7z M164.6,356.3c0.2,0,0.4,0.1,0.6,0.1l0.2-1.3
	c-0.2,0-0.4-0.1-0.6-0.1L164.6,356.3L164.6,356.3z M169,356.9c0.2,0,0.4,0.1,0.6,0.1l0.2-1.3c-0.2,0-0.4-0.1-0.6-0.1L169,356.9z
	 M173.4,357.6c0.2,0,0.4,0.1,0.6,0.1l0.2-1.3c-0.2,0-0.4-0.1-0.6-0.1L173.4,357.6z M177.9,358.2c0.2,0,0.4,0.1,0.6,0.1l0.2-1.3
	c-0.2,0-0.4-0.1-0.6-0.1L177.9,358.2z M182.3,358.8c0.2,0,0.4,0.1,0.6,0.1l0.2-1.3c-0.2,0-0.4-0.1-0.6-0.1L182.3,358.8z
	 M186.7,359.5c0.2,0,0.4,0.1,0.6,0.1l0.2-1.3c-0.2,0-0.4-0.1-0.6-0.1L186.7,359.5L186.7,359.5z M191.2,360.1c0.1,0,0.2,0,0.3,0
	l0.2-1.3c-0.1,0-0.2,0-0.3,0L191.2,360.1z M191.5,360.2c0.1,0,0.2,0,0.3,0l0.2-1.3c-0.1,0-0.2,0-0.4,0L191.5,360.2L191.5,360.2z
	 M195.8,361.1c0.2,0,0.4,0.1,0.7,0.2l0.3-1.2c-0.2-0.1-0.4-0.1-0.7-0.2L195.8,361.1L195.8,361.1z M200.4,362.3
	c0.2,0.1,0.4,0.1,0.7,0.2l0.3-1.2c-0.2-0.1-0.4-0.1-0.7-0.2L200.4,362.3z M205.1,363.6c0.2,0.1,0.4,0.1,0.7,0.2l0.3-1.2
	c-0.2-0.1-0.4-0.1-0.7-0.2L205.1,363.6z M209.8,364.8c0.2,0,0.4,0.1,0.7,0.2l0.3-1.2c-0.2,0-0.4-0.1-0.7-0.2L209.8,364.8
	L209.8,364.8z M214.5,365.8c0.2,0,0.5,0.1,0.7,0.1l0.2-1.3c-0.2,0-0.4-0.1-0.7-0.1L214.5,365.8z M219.4,366.4c0.1,0,0.2,0,0.4,0
	l0-1.3c-0.1,0-0.2,0-0.3,0L219.4,366.4L219.4,366.4z M219.8,366.4c0.1,0,0.2,0,0.3,0l0-1.3c-0.1,0-0.2,0-0.3,0L219.8,366.4
	L219.8,366.4z M223.8,366.6c0.2,0,0.4,0,0.6,0.1l0.1-1.3c-0.2,0-0.4,0-0.6-0.1L223.8,366.6L223.8,366.6z M228.1,367.2
	c0.2,0,0.4,0.1,0.6,0.1l0.2-1.3c-0.2,0-0.4-0.1-0.6-0.1L228.1,367.2L228.1,367.2z M232.5,367.9c0.2,0,0.4,0.1,0.6,0.1l0.2-1.3
	c-0.2,0-0.4-0.1-0.6-0.1L232.5,367.9z M236.8,368.6c0.2,0,0.4,0.1,0.6,0.1l0.2-1.3c-0.2,0-0.4-0.1-0.6-0.1L236.8,368.6z
	 M241.2,369.3c0.1,0,0.2,0,0.3,0l0.2-1.3c-0.1,0-0.2,0-0.3,0L241.2,369.3z M241.5,369.4c0.1,0,0.2,0,0.4,0l0.2-1.3
	c-0.1,0-0.2,0-0.4,0L241.5,369.4L241.5,369.4z M246.1,370.3c0.2,0.1,0.5,0.1,0.7,0.2l0.4-1.2c-0.2-0.1-0.5-0.1-0.7-0.2L246.1,370.3
	L246.1,370.3z M251,371.9c0.2,0.1,0.5,0.2,0.7,0.3l0.5-1.2c-0.2-0.1-0.5-0.2-0.7-0.3L251,371.9z M255.5,374c0.1,0.1,0.2,0.1,0.2,0.2
	l0.9-1c-0.1-0.1-0.2-0.2-0.3-0.3L255.5,374L255.5,374z M255.7,374.2c0,0,0.1,0.1,0.2,0.2l1-0.8c-0.1-0.1-0.2-0.2-0.3-0.3
	L255.7,374.2L255.7,374.2z M257.4,377.5c0.1,0.2,0.1,0.4,0.2,0.6l1.2-0.4c-0.1-0.2-0.1-0.4-0.2-0.6L257.4,377.5L257.4,377.5z
	 M258.7,381.5c0.1,0.2,0.1,0.4,0.2,0.6l1.2-0.3c-0.1-0.2-0.1-0.4-0.2-0.6L258.7,381.5L258.7,381.5z M259.8,385.6
	c0,0.2,0.1,0.4,0.1,0.6l1.3-0.3c0-0.2-0.1-0.4-0.1-0.6L259.8,385.6L259.8,385.6z M260.6,389.8c0,0.1,0,0.2,0.1,0.3l1.3-0.2
	c0-0.1,0-0.2,0-0.3L260.6,389.8L260.6,389.8z M260.7,390.1c0,0.1,0,0.2,0.1,0.4l1.3-0.2c0-0.1,0-0.2-0.1-0.3L260.7,390.1
	L260.7,390.1z M262,394.8c0.1,0.2,0.2,0.5,0.3,0.7l1.2-0.5c-0.1-0.2-0.2-0.5-0.2-0.7L262,394.8L262,394.8z M264,399.5
	c0.1,0.2,0.2,0.4,0.3,0.7l1.2-0.5c-0.1-0.2-0.2-0.4-0.3-0.6L264,399.5z M266.2,404.1c0.1,0.2,0.2,0.4,0.3,0.6l1.1-0.6
	c-0.1-0.2-0.2-0.4-0.3-0.6L266.2,404.1L266.2,404.1z M268.7,408.5c0.1,0.1,0.1,0.2,0.2,0.3l1.1-0.7c-0.1-0.1-0.1-0.2-0.2-0.3
	L268.7,408.5L268.7,408.5z M268.9,408.9c0,0.1,0.1,0.2,0.2,0.3l1.1-0.7c-0.1-0.1-0.1-0.2-0.2-0.3L268.9,408.9L268.9,408.9z
	 M270.7,412.7c0.1,0.2,0.1,0.4,0.2,0.6l1.2-0.4c-0.1-0.2-0.1-0.4-0.2-0.6L270.7,412.7L270.7,412.7z M272,417.1
	c0.1,0.2,0.1,0.4,0.2,0.6l1.2-0.3c0-0.2-0.1-0.4-0.2-0.7L272,417.1L272,417.1z M273,421.7c0,0.2,0.1,0.4,0.1,0.7l1.3-0.2
	c0-0.2-0.1-0.5-0.1-0.7L273,421.7L273,421.7z M273.8,426.3c0,0.2,0.1,0.4,0.1,0.7l1.3-0.2c0-0.2-0.1-0.5-0.1-0.7L273.8,426.3
	L273.8,426.3z M274.3,431c0,0.1,0,0.2,0,0.3l1.3-0.1c0-0.1,0-0.2,0-0.3L274.3,431L274.3,431z M274.3,431.3c0,0.1,0,0.2,0,0.3
	l1.3-0.1c0-0.1,0-0.2,0-0.3L274.3,431.3L274.3,431.3z M274.7,435.2c0,0.2,0,0.4,0.1,0.6l1.3-0.2c0-0.2,0-0.4-0.1-0.6L274.7,435.2
	L274.7,435.2z M275.3,439.3c0,0.2,0.1,0.4,0.1,0.6l1.3-0.2c0-0.2-0.1-0.4-0.1-0.6L275.3,439.3z M276.1,443.4c0,0.2,0.1,0.4,0.1,0.6
	l1.2-0.3c0-0.2-0.1-0.4-0.1-0.6L276.1,443.4L276.1,443.4z M277.3,447.4c0.1,0.2,0.1,0.4,0.2,0.6l1.2-0.4c-0.1-0.2-0.1-0.4-0.2-0.5
	L277.3,447.4L277.3,447.4z M278.8,451.4c0.1,0.2,0.1,0.4,0.2,0.5l1.2-0.5c-0.1-0.2-0.1-0.4-0.2-0.5L278.8,451.4z M280.3,455.2
	c0,0.1,0.1,0.2,0.1,0.3l1.2-0.5c0-0.1-0.1-0.2-0.1-0.3L280.3,455.2z M280.5,455.5c0,0.1,0.1,0.2,0.1,0.3l1.2-0.5
	c0-0.1-0.1-0.2-0.1-0.3L280.5,455.5z M282.6,459.4c0.1,0.2,0.3,0.4,0.4,0.5l1-0.8c-0.1-0.2-0.3-0.3-0.4-0.5L282.6,459.4L282.6,459.4
	z M285.9,462.9c0.2,0.1,0.3,0.3,0.5,0.4l0.8-1c-0.2-0.1-0.3-0.3-0.5-0.4L285.9,462.9z M289.7,465.7c0.2,0.1,0.4,0.2,0.6,0.4l0.6-1.1
	c-0.2-0.1-0.4-0.2-0.6-0.3L289.7,465.7L289.7,465.7z M293.9,468c0.2,0.1,0.4,0.2,0.6,0.3l0.5-1.2c-0.2-0.1-0.4-0.2-0.6-0.3
	L293.9,468L293.9,468z M298.2,469.8c0.1,0,0.2,0.1,0.3,0.1l0.5-1.2c-0.1,0-0.2-0.1-0.3-0.1L298.2,469.8z M298.5,469.9
	c0.1,0,0.2,0.1,0.4,0.1l0.5-1.2c-0.1,0-0.2-0.1-0.4-0.1L298.5,469.9L298.5,469.9z M302.9,472.3c0.2,0.2,0.4,0.3,0.6,0.5l0.9-1
	c-0.2-0.2-0.4-0.4-0.6-0.5L302.9,472.3L302.9,472.3z M305.8,476.5c0,0.1,0.1,0.2,0.1,0.4l1.3-0.2c0-0.1-0.1-0.3-0.1-0.4L305.8,476.5
	L305.8,476.5z M305.9,476.8c0,0.1,0,0.2,0.1,0.4l1.3-0.2c0-0.1,0-0.3-0.1-0.4L305.9,476.8z M306.1,481.7c0,0.2,0,0.5,0,0.8l1.3,0
	c0-0.3,0-0.5,0-0.8L306.1,481.7L306.1,481.7z M305.9,487c0,0.1,0,0.3,0,0.4h1.3c0-0.1,0-0.2,0-0.4L305.9,487L305.9,487z
	 M305.9,487.4c0,0.1,0,0.2,0,0.3l1.3-0.1c0-0.1,0-0.2,0-0.3L305.9,487.4L305.9,487.4z M306.4,491.6c0,0.2,0.1,0.4,0.1,0.6l1.3-0.2
	c0-0.2-0.1-0.4-0.1-0.6L306.4,491.6z M307.2,496c0,0.2,0.1,0.4,0.1,0.6l1.3-0.2c0-0.2-0.1-0.4-0.1-0.6L307.2,496L307.2,496z
	 M307.8,500.4c0,0.2,0,0.4,0.1,0.6l1.3-0.1c0-0.2,0-0.4-0.1-0.6L307.8,500.4z M308.1,504.8c0,0.1,0,0.2,0,0.3h1.3c0-0.1,0-0.2,0-0.3
	L308.1,504.8L308.1,504.8z M308.1,505.2c0,0.1,0,0.2,0,0.3h1.3c0-0.1,0-0.2,0-0.3H308.1z M308,509.4c0,0.2,0,0.4,0,0.7l1.3,0
	c0-0.2,0-0.4,0-0.7L308,509.4z M308,513.9c0,0.2,0,0.4,0,0.7h1.3c0-0.2,0-0.4,0-0.7L308,513.9L308,513.9z M308.1,518.5
	c0,0.2,0,0.4,0,0.7l1.3-0.1c0-0.2,0-0.4,0-0.6L308.1,518.5L308.1,518.5z M308.6,523.1c0,0.2,0.1,0.4,0.1,0.7l1.3-0.2
	c0-0.2-0.1-0.4-0.1-0.6L308.6,523.1z M309.9,527.7c0.1,0.1,0.1,0.2,0.2,0.3l1.1-0.7c0-0.1-0.1-0.2-0.1-0.2L309.9,527.7L309.9,527.7z
	 M310,528c0,0.1,0.1,0.2,0.2,0.3l1.1-0.7c0-0.1-0.1-0.2-0.1-0.2L310,528L310,528z M313,530.9c0.2,0.1,0.4,0.2,0.5,0.3l0.6-1.1
	c-0.2-0.1-0.3-0.2-0.5-0.3L313,530.9L313,530.9z M316.9,532.5c0.2,0.1,0.4,0.1,0.6,0.2l0.4-1.2c-0.2,0-0.4-0.1-0.5-0.2L316.9,532.5
	L316.9,532.5z M320.9,533.5c0.2,0,0.4,0.1,0.6,0.1l0.3-1.3c-0.2,0-0.4-0.1-0.6-0.1L320.9,533.5L320.9,533.5z M324.9,534.3
	c0.1,0,0.2,0,0.3,0.1l0.3-1.2c-0.1,0-0.2,0-0.3-0.1L324.9,534.3L324.9,534.3z M325.2,534.4c0.1,0,0.2,0.1,0.3,0.1l0.4-1.2
	c-0.1,0-0.2-0.1-0.3-0.1L325.2,534.4L325.2,534.4z M329.1,535.8c0.2,0.1,0.4,0.2,0.6,0.2l0.5-1.2c-0.2-0.1-0.4-0.2-0.6-0.2
	L329.1,535.8z M333.3,537.6c0.2,0.1,0.4,0.2,0.6,0.3l0.5-1.2c-0.2-0.1-0.4-0.2-0.6-0.3L333.3,537.6L333.3,537.6z M337.3,539.7
	c0,0,0.1,0.1,0.1,0.1c0,0,0,0,0,0l0.9-0.9c-0.1-0.1-0.2-0.2-0.4-0.3L337.3,539.7L337.3,539.7z M337.6,539.9c0.1,0.1,0.2,0.1,0.3,0.2
	l0.6-1.1c-0.1,0-0.2-0.1-0.2-0.1L337.6,539.9L337.6,539.9z M342,540.8c0.2,0,0.5-0.1,0.7-0.1l-0.3-1.3c-0.2,0-0.4,0.1-0.6,0.1
	L342,540.8L342,540.8z M346.4,539c0.2-0.1,0.4-0.3,0.5-0.4l-0.8-1c-0.2,0.1-0.3,0.2-0.5,0.4L346.4,539z M349.7,535.7
	c0.1-0.1,0.1-0.2,0.2-0.3l-1-0.8c-0.1,0.1-0.1,0.2-0.2,0.2L349.7,535.7L349.7,535.7z M349.9,535.5c0.1-0.1,0.1-0.2,0.2-0.3l-1-0.8
	c-0.1,0.1-0.1,0.2-0.2,0.3L349.9,535.5L349.9,535.5z M352.4,531.9c0.1-0.2,0.2-0.4,0.4-0.5l-1.1-0.7c-0.1,0.2-0.2,0.4-0.4,0.5
	L352.4,531.9z M355,528.1c0.1-0.2,0.2-0.4,0.4-0.5l-1.1-0.7c-0.1,0.2-0.2,0.4-0.4,0.5L355,528.1z M357.6,524.2
	c0.1-0.2,0.2-0.4,0.4-0.6l-1.1-0.7c-0.1,0.2-0.2,0.4-0.4,0.5L357.6,524.2L357.6,524.2z M360.2,520.3c0.1-0.2,0.2-0.4,0.4-0.6
	l-1.1-0.7c-0.1,0.2-0.2,0.4-0.4,0.6L360.2,520.3z M362.8,516.4c0.1-0.2,0.2-0.4,0.4-0.5l-1.1-0.7c-0.1,0.2-0.2,0.4-0.4,0.6
	L362.8,516.4L362.8,516.4z M365.4,512.5c0.1-0.2,0.3-0.4,0.4-0.5l-1-0.7c-0.1,0.2-0.2,0.4-0.4,0.5L365.4,512.5z M368.2,508.9
	C368.2,508.9,368.2,508.9,368.2,508.9C368.2,508.9,368.2,508.9,368.2,508.9L368.2,508.9C368.3,508.9,368.2,508.9,368.2,508.9
	C368.2,508.9,368.2,508.9,368.2,508.9l-0.4-1.3c-0.2,0.1-0.4,0.2-0.5,0.3L368.2,508.9L368.2,508.9z M368.2,508.9
	C368.2,508.9,368.2,508.9,368.2,508.9C368.2,508.9,368.2,508.9,368.2,508.9l0.1-1.3c-0.1,0-0.3,0-0.5,0L368.2,508.9L368.2,508.9z
	 M371.4,509.7c0.2,0.1,0.4,0.1,0.5,0.2l0.4-1.2c-0.2-0.1-0.4-0.1-0.5-0.2L371.4,509.7L371.4,509.7z M375.1,511.1
	c0.2,0.1,0.4,0.2,0.5,0.2l0.5-1.2c-0.2-0.1-0.4-0.2-0.5-0.2L375.1,511.1z M378.7,512.8c0.1,0,0.2,0.1,0.2,0.1l0.6-1.1
	c-0.1,0-0.2-0.1-0.3-0.2L378.7,512.8z M378.9,512.9c0.1,0,0.2,0.1,0.3,0.2l0.6-1.1c-0.1,0-0.2-0.1-0.2-0.1L378.9,512.9L378.9,512.9z
	 M382.4,514.6c0.2,0.1,0.4,0.2,0.5,0.2l0.5-1.2c-0.2-0.1-0.4-0.2-0.5-0.2L382.4,514.6L382.4,514.6z M386.1,516.3
	c0.2,0.1,0.4,0.2,0.5,0.2l0.5-1.2c-0.2-0.1-0.4-0.2-0.5-0.2L386.1,516.3z M389.9,518c0.2,0.1,0.4,0.2,0.5,0.2l0.5-1.2
	c-0.2-0.1-0.4-0.2-0.5-0.2L389.9,518L389.9,518z M393.6,519.7c0.2,0.1,0.4,0.2,0.5,0.2l0.5-1.2c-0.2-0.1-0.4-0.2-0.5-0.2
	L393.6,519.7L393.6,519.7z M397.4,521.5c0.1,0,0.2,0.1,0.2,0.1l0.6-1.2c-0.1,0-0.2-0.1-0.3-0.1L397.4,521.5L397.4,521.5z
	 M397.6,521.6c0.1,0,0.2,0.1,0.3,0.2l0.6-1.1c-0.1-0.1-0.2-0.1-0.3-0.2L397.6,521.6z M401.5,524c0.2,0.1,0.4,0.3,0.6,0.4l0.7-1.1
	c-0.2-0.1-0.4-0.3-0.6-0.4L401.5,524L401.5,524z M405.7,526.8c0.2,0.1,0.4,0.3,0.6,0.4l0.7-1.1c-0.2-0.1-0.4-0.3-0.6-0.4
	L405.7,526.8z M409.8,529.6c0.2,0.1,0.4,0.3,0.6,0.4l0.8-1c-0.2-0.1-0.4-0.3-0.6-0.4L409.8,529.6L409.8,529.6z M413.6,532.7
	c0,0,0.1,0.1,0.1,0.1c0,0,0,0,0,0C413.7,532.8,413.7,532.8,413.6,532.7l1.3-0.4c0-0.1-0.1-0.2-0.2-0.3c-0.1-0.1-0.1-0.1-0.2-0.2
	L413.6,532.7L413.6,532.7z M413.7,532.7c0.1,0.2,0.2,0.3,0.4,0.4c0.2,0.1,0.3,0.1,0.4,0c0.2,0,0.3-0.1,0.4-0.2l-0.7-1.1
	c-0.1,0,0,0,0,0c0,0,0.2,0,0.3,0c0.2,0.1,0.3,0.2,0.3,0.3L413.7,532.7z M418,529.8c0.1-0.2,0.3-0.3,0.5-0.5l-1-0.8
	c-0.1,0.2-0.3,0.3-0.5,0.5L418,529.8L418,529.8z M421.1,526.1c0.1-0.2,0.3-0.4,0.4-0.5l-1-0.8c-0.1,0.2-0.3,0.4-0.4,0.5L421.1,526.1
	L421.1,526.1z M424.1,522.2c0.1-0.2,0.3-0.4,0.4-0.6l-1-0.8c-0.1,0.2-0.3,0.4-0.4,0.6L424.1,522.2z M426.9,518.1
	c0.1-0.1,0.1-0.2,0.2-0.3l-1.2-0.5c0,0.1-0.1,0.2-0.1,0.3L426.9,518.1L426.9,518.1z M427.1,517.8c0-0.1,0.1-0.2,0.1-0.4L426,517
	c0,0.1-0.1,0.2-0.1,0.3L427.1,517.8L427.1,517.8z M428.3,513.4c0-0.2,0.1-0.4,0.2-0.7l-1.3-0.3c0,0.2-0.1,0.5-0.1,0.7L428.3,513.4
	L428.3,513.4z M429.4,508.7c0-0.2,0.1-0.4,0.1-0.7l-1.3-0.3c0,0.2-0.1,0.5-0.1,0.7L429.4,508.7z M430.4,504c0-0.2,0.1-0.5,0.1-0.7
	l-1.3-0.3c0,0.2-0.1,0.5-0.1,0.7L430.4,504z M431.4,499.4c0-0.2,0.1-0.5,0.1-0.7l-1.3-0.3c0,0.2-0.1,0.4-0.1,0.7L431.4,499.4
	L431.4,499.4z M432.6,494.8c0-0.1,0.1-0.2,0.1-0.3l-1.2-0.4c0,0.1-0.1,0.2-0.1,0.3L432.6,494.8L432.6,494.8z M432.7,494.4
	c0-0.1,0.1-0.2,0.1-0.3l-1.2-0.4c0,0.1-0.1,0.2-0.1,0.3L432.7,494.4z M433.9,490.2c0.1-0.2,0.1-0.4,0.2-0.7l-1.2-0.3
	c0,0.2-0.1,0.4-0.2,0.6L433.9,490.2L433.9,490.2z M434.9,485.7c0-0.2,0.1-0.4,0.1-0.7l-1.3-0.3c0,0.2-0.1,0.4-0.1,0.6L434.9,485.7
	L434.9,485.7z M435.8,481.1c0-0.2,0.1-0.4,0.1-0.7l-1.3-0.2c0,0.2-0.1,0.4-0.1,0.6L435.8,481.1L435.8,481.1z M436.4,476.4
	c0-0.2,0-0.5,0.1-0.7l-1.3-0.1c0,0.2,0,0.4,0,0.7L436.4,476.4L436.4,476.4z M436.6,471.6c0-0.1,0-0.2,0-0.3l-1.3,0.1
	c0,0.1,0,0.2,0,0.3L436.6,471.6L436.6,471.6z M436.6,471.3c0-0.1,0-0.2,0-0.4l-1.3,0.1c0,0.1,0,0.2,0,0.4L436.6,471.3L436.6,471.3z
	 M436.5,466.8c0-0.2,0-0.5,0-0.7l-1.3-0.1c0,0.2,0,0.5,0,0.7L436.5,466.8L436.5,466.8z M437.4,462.3c0-0.1,0.1-0.2,0.1-0.3l-1.2-0.4
	c0,0.1-0.1,0.2-0.1,0.3L437.4,462.3L437.4,462.3z M437.5,461.9c0-0.1,0.1-0.3,0.1-0.4l-1.3-0.2c0,0.1,0,0.1,0,0.2L437.5,461.9z
	 M437.1,457.6c0-0.2-0.1-0.4-0.1-0.6l-1.3,0.3c0,0.2,0.1,0.4,0.1,0.6L437.1,457.6L437.1,457.6z M436,453.3c0-0.2-0.1-0.4-0.2-0.6
	l-1.2,0.3c0,0.2,0.1,0.4,0.2,0.6L436,453.3z M435,449c0-0.2-0.1-0.4-0.1-0.6l-1.3,0.3c0,0.2,0.1,0.4,0.1,0.6L435,449L435,449z
	 M434.3,444.8c0-0.1,0-0.2,0-0.3l-1.3-0.1c0,0.1,0,0.2,0,0.4L434.3,444.8L434.3,444.8z M434.3,444.6c0-0.1,0-0.2,0-0.4l-1.3-0.1
	c0,0.1,0,0.2,0,0.4L434.3,444.6L434.3,444.6z M434.7,440c0-0.2,0-0.5,0.1-0.7l-1.3-0.1c0,0.2,0,0.5-0.1,0.7L434.7,440L434.7,440z
	 M435.2,435.1c0-0.2,0-0.5,0.1-0.7l-1.3-0.1c0,0.2,0,0.5-0.1,0.7L435.2,435.1L435.2,435.1z M435.7,430.2c0-0.2,0.1-0.5,0.1-0.7
	l-1.3-0.2c0,0.2-0.1,0.5-0.1,0.7L435.7,430.2L435.7,430.2z M436.5,425.3c0-0.2,0.1-0.5,0.1-0.7l-1.3-0.2c0,0.2-0.1,0.5-0.1,0.7
	L436.5,425.3L436.5,425.3z M437.4,420.4c0-0.1,0-0.2,0.1-0.3l-1.2-0.3c0,0.1-0.1,0.2-0.1,0.4L437.4,420.4L437.4,420.4z M437.5,420.1
	c0-0.1,0-0.2,0.1-0.3l-1.2-0.3c0,0.1,0,0.2-0.1,0.3L437.5,420.1z M438.4,416.2c0-0.2,0.1-0.4,0.1-0.6l-1.3-0.3
	c0,0.2-0.1,0.4-0.1,0.6L438.4,416.2L438.4,416.2z M439.1,411.9c0-0.2,0.1-0.4,0.1-0.6l-1.3-0.2c0,0.2-0.1,0.4-0.1,0.6L439.1,411.9
	L439.1,411.9z M439.6,407.6c0-0.2,0-0.4,0-0.6l-1.3-0.1c0,0.2,0,0.4,0,0.6L439.6,407.6L439.6,407.6z M439.7,403.2c0-0.2,0-0.4,0-0.6
	l-1.3,0.1c0,0.2,0,0.4,0,0.6L439.7,403.2z M439.3,398.9c0-0.2-0.1-0.4-0.1-0.6l-1.3,0.2c0,0.2,0.1,0.4,0.1,0.6L439.3,398.9
	L439.3,398.9z M438.5,394.6c0-0.1,0-0.2-0.1-0.3l-1.2,0.3c0,0.1,0,0.2,0.1,0.3L438.5,394.6z M438.4,394.3c0-0.1-0.1-0.2-0.1-0.3
	l-1.2,0.3c0,0.1,0.1,0.2,0.1,0.3L438.4,394.3L438.4,394.3z M437.3,390.2c0-0.2-0.1-0.4-0.1-0.6l-1.2,0.3c0,0.2,0.1,0.4,0.1,0.6
	L437.3,390.2L437.3,390.2z M436.3,385.8c0-0.2-0.1-0.4-0.1-0.6l-1.3,0.3c0,0.2,0.1,0.4,0.1,0.6L436.3,385.8z M435.4,381.4
	c0-0.2-0.1-0.4-0.1-0.6L434,381c0,0.2,0.1,0.4,0.1,0.6L435.4,381.4L435.4,381.4z M434.5,377c0-0.2-0.1-0.4-0.1-0.6l-1.3,0.2
	c0,0.2,0.1,0.4,0.1,0.6L434.5,377z M433.8,372.5c0-0.1,0-0.2,0-0.3l-1.3,0.2c0,0.1,0,0.2,0,0.3L433.8,372.5L433.8,372.5z
	 M433.8,372.2c0-0.1,0-0.2,0-0.3l-1.3,0.2c0,0.1,0,0.2,0,0.3L433.8,372.2L433.8,372.2z M432.7,368c-0.1-0.2-0.1-0.4-0.2-0.6
	l-1.2,0.4c0.1,0.2,0.1,0.4,0.2,0.6L432.7,368L432.7,368z M431.1,363.7c-0.1-0.2-0.2-0.4-0.2-0.6l-1.2,0.5c0.1,0.2,0.2,0.4,0.2,0.6
	L431.1,363.7L431.1,363.7z M429.3,359.5c-0.1-0.2-0.2-0.4-0.3-0.6l-1.2,0.6c0.1,0.2,0.2,0.4,0.3,0.6L429.3,359.5L429.3,359.5z
	 M427.2,355.4c-0.1-0.2-0.2-0.4-0.3-0.6l-1.1,0.6c0.1,0.2,0.2,0.4,0.3,0.6L427.2,355.4L427.2,355.4z M424.8,351.4
	c-0.1-0.2-0.2-0.4-0.4-0.5l-1.1,0.7c0.1,0.2,0.2,0.4,0.4,0.5L424.8,351.4L424.8,351.4z M422,347.7c-0.1-0.1-0.1-0.2-0.2-0.2
	l-0.9,0.9c0.1,0.1,0.1,0.1,0.2,0.2L422,347.7L422,347.7z M421.8,347.4c-0.1-0.1-0.1-0.1-0.2-0.2l-1,0.9c0.1,0.1,0.1,0.1,0.2,0.2
	L421.8,347.4L421.8,347.4z M419.1,344.4c-0.1-0.2-0.3-0.3-0.4-0.5l-1,0.8c0.1,0.2,0.3,0.3,0.4,0.5L419.1,344.4L419.1,344.4z
	 M416.5,341c-0.1-0.2-0.2-0.3-0.4-0.5l-1.1,0.7c0.1,0.2,0.2,0.4,0.4,0.5L416.5,341L416.5,341z M414.2,337.3
	c-0.1-0.2-0.2-0.4-0.3-0.5l-1.2,0.6c0.1,0.2,0.2,0.4,0.3,0.6L414.2,337.3L414.2,337.3z M412.5,333.3c-0.1-0.2-0.1-0.4-0.2-0.6
	l-1.2,0.4c0.1,0.2,0.1,0.4,0.2,0.6L412.5,333.3L412.5,333.3z M411.4,329.2c0-0.2-0.1-0.4-0.1-0.6l-1.3,0.2c0,0.2,0.1,0.4,0.1,0.6
	L411.4,329.2L411.4,329.2z M410.9,324.9c0-0.1,0-0.2,0-0.3l-1.3,0.1c0,0.1,0,0.2,0,0.3L410.9,324.9z M410.9,324.6c0-0.1,0-0.2,0-0.4
	l-1.3,0.1c0,0.1,0,0.2,0,0.3L410.9,324.6z M410.6,320.1c0-0.2,0-0.5-0.1-0.7l-1.3,0.1c0,0.2,0,0.5,0.1,0.7L410.6,320.1z M410,315.3
	c0-0.2-0.1-0.5-0.1-0.7l-1.3,0.2c0,0.2,0.1,0.4,0.1,0.7L410,315.3L410,315.3z M409.1,310.6c0-0.2-0.1-0.5-0.1-0.7l-1.3,0.3
	c0,0.2,0.1,0.4,0.1,0.7L409.1,310.6L409.1,310.6z M407.9,305.9c-0.1-0.2-0.1-0.4-0.2-0.7l-1.2,0.4c0.1,0.2,0.1,0.4,0.2,0.6
	L407.9,305.9L407.9,305.9z M406.5,301.3c0-0.1-0.1-0.2-0.1-0.3l-1.2,0.4c0,0.1,0.1,0.2,0.1,0.3L406.5,301.3z M406.4,301
	c0-0.1,0-0.2-0.1-0.3l-1.2,0.3c0,0.1,0.1,0.2,0.1,0.3L406.4,301z M406.3,297.1c0-0.2,0.1-0.4,0.1-0.6l-1.3-0.3
	c0,0.2-0.1,0.4-0.1,0.7L406.3,297.1L406.3,297.1z M407.7,293c0.1-0.2,0.2-0.4,0.3-0.6l-1.1-0.6c-0.1,0.2-0.2,0.4-0.3,0.6L407.7,293z
	 M409.9,289.2c0.1-0.2,0.2-0.4,0.4-0.5l-1.1-0.7c-0.1,0.2-0.2,0.4-0.4,0.5L409.9,289.2L409.9,289.2z M412.6,285.7
	c0.1-0.1,0.1-0.2,0.2-0.2l-1-0.9c-0.1,0.1-0.1,0.2-0.2,0.2L412.6,285.7L412.6,285.7z M412.8,285.4c0.1-0.1,0.1-0.2,0.2-0.2l-1-0.8
	c-0.1,0.1-0.1,0.2-0.2,0.2L412.8,285.4L412.8,285.4z M415.2,282.2c0.1-0.2,0.2-0.3,0.4-0.5l-1-0.8c-0.1,0.2-0.2,0.3-0.4,0.5
	L415.2,282.2z M417.8,278.7c0.1-0.2,0.2-0.3,0.4-0.5l-1-0.8c-0.1,0.2-0.2,0.3-0.4,0.5L417.8,278.7L417.8,278.7z M420.4,275.2
	c0.1-0.2,0.2-0.3,0.4-0.5l-1-0.8c-0.1,0.2-0.2,0.3-0.4,0.5L420.4,275.2z M423,271.7c0.1-0.2,0.2-0.3,0.4-0.5l-1-0.8
	c-0.1,0.2-0.2,0.3-0.4,0.5L423,271.7L423,271.7z M425.6,268.2c0.1-0.2,0.2-0.3,0.4-0.5l-1-0.8c-0.1,0.2-0.2,0.3-0.4,0.5L425.6,268.2
	z M428.2,264.6c0.1-0.1,0.1-0.2,0.2-0.3l-1.1-0.7c0,0.1-0.1,0.2-0.2,0.2L428.2,264.6L428.2,264.6z M428.3,264.4
	c0.1-0.1,0.1-0.2,0.2-0.3l-1.1-0.7c-0.1,0.1-0.1,0.2-0.2,0.3L428.3,264.4z M430.8,260.6c0.1-0.2,0.2-0.4,0.4-0.6l-1.1-0.7
	c-0.1,0.2-0.2,0.4-0.4,0.6L430.8,260.6L430.8,260.6z M433.4,256.5c0.1-0.2,0.2-0.4,0.4-0.6l-1.1-0.7c-0.1,0.2-0.2,0.4-0.4,0.6
	L433.4,256.5L433.4,256.5z M435.8,252.3c0.1-0.2,0.2-0.4,0.3-0.6l-1.2-0.6c-0.1,0.2-0.2,0.4-0.3,0.6L435.8,252.3L435.8,252.3z
	 M437.6,247.7c0-0.1,0-0.2,0.1-0.4l-1.3-0.2c0,0.1,0,0.2-0.1,0.3L437.6,247.7L437.6,247.7z M437.7,247.3c0-0.1,0-0.2,0-0.3l-1.3-0.2
	c0,0.1,0,0.2,0,0.3L437.7,247.3L437.7,247.3z M438.3,243.1c0-0.2,0-0.4,0.1-0.6l-1.3-0.2c0,0.2,0,0.4-0.1,0.6L438.3,243.1z
	 M438.8,238.5c0-0.2,0.1-0.4,0.1-0.6l-1.3-0.2c0,0.2-0.1,0.4-0.1,0.6L438.8,238.5L438.8,238.5z M439.6,234c0-0.2,0.1-0.4,0.1-0.6
	l-1.3-0.2c0,0.2-0.1,0.4-0.1,0.6L439.6,234L439.6,234z M440.5,229.6c0-0.2,0.1-0.4,0.2-0.6l-1.2-0.3c-0.1,0.2-0.1,0.4-0.2,0.6
	L440.5,229.6L440.5,229.6z M441.9,225.4c0-0.1,0.1-0.2,0.1-0.3l-1.2-0.5c0,0.1-0.1,0.2-0.1,0.3L441.9,225.4L441.9,225.4z
	 M442.1,225.1c0-0.1,0.1-0.2,0.1-0.3l-1.2-0.5c0,0.1-0.1,0.2-0.1,0.3L442.1,225.1z M443.6,221.5c0.1-0.2,0.2-0.4,0.2-0.6l-1.2-0.5
	c-0.1,0.2-0.2,0.4-0.2,0.6L443.6,221.5z M445.3,217.6c0.1-0.2,0.2-0.4,0.2-0.6l-1.2-0.5c-0.1,0.2-0.2,0.4-0.2,0.6L445.3,217.6z
	 M447.3,213.1c0.1-0.2,0.2-0.4,0.3-0.6l-1.1-0.6c-0.1,0.2-0.2,0.4-0.3,0.6L447.3,213.1L447.3,213.1z M449.5,209.1
	c0.1-0.2,0.2-0.4,0.3-0.6l-1.1-0.6c-0.1,0.2-0.2,0.4-0.3,0.6L449.5,209.1L449.5,209.1z M451.9,205.1c0.1-0.2,0.2-0.4,0.4-0.6
	l-1.1-0.7c-0.1,0.2-0.2,0.4-0.4,0.6L451.9,205.1L451.9,205.1z M454.5,201.4c0.1-0.2,0.3-0.4,0.4-0.5l-1-0.8
	c-0.1,0.2-0.3,0.4-0.4,0.5L454.5,201.4L454.5,201.4z M457.4,198.1c0.1-0.1,0.2-0.1,0.2-0.2l-0.7-1.1c-0.1,0.1-0.2,0.1-0.3,0.2
	L457.4,198.1L457.4,198.1z M457.6,197.9c0.1-0.1,0.2-0.1,0.3-0.2l-0.7-1.1c-0.1,0.1-0.2,0.1-0.3,0.2L457.6,197.9L457.6,197.9z
	 M461.4,195.6c0.2-0.1,0.4-0.2,0.6-0.3l-0.5-1.2c-0.2,0.1-0.4,0.2-0.6,0.3L461.4,195.6L461.4,195.6z M465.8,194
	c0.2-0.1,0.4-0.1,0.6-0.2l-0.3-1.3c-0.2,0.1-0.5,0.1-0.7,0.2L465.8,194L465.8,194z M470.4,193.2c0.2,0,0.5,0,0.7,0l-0.1-1.3
	c-0.2,0-0.5,0-0.7,0L470.4,193.2L470.4,193.2z M476.4,192.5l-0.9,0c-0.3,0-0.6-0.3-0.6-0.6l0,0c0-0.3,0.3-0.6,0.6-0.6l0.9,0
	c0.3,0,0.6,0.3,0.6,0.6l0,0C477,192.2,476.7,192.5,476.4,192.5z M481.7,191.1l-0.8,0.3c-0.3,0.1-0.6-0.1-0.8-0.4l0,0
	c-0.1-0.3,0.1-0.6,0.4-0.8l0.8-0.3c0.3-0.1,0.6,0.1,0.8,0.4l0,0C482.2,190.6,482.1,191,481.7,191.1z M486.7,188.4L486,189
	c-0.3,0.2-0.6,0.2-0.8-0.1l0,0c-0.2-0.3-0.2-0.6,0.1-0.8l0.7-0.6c0.3-0.2,0.6-0.2,0.8,0.1l0,0C486.9,187.8,486.9,188.2,486.7,188.4z
	 M490.2,184.5l-0.5,0.7c-0.2,0.3-0.6,0.3-0.8,0.1l0,0c-0.3-0.2-0.3-0.6-0.1-0.8l0.5-0.7c0.2-0.3,0.6-0.3,0.8-0.1l0,0
	C490.4,183.9,490.4,184.3,490.2,184.5z M491.8,179l-0.1,0.9c-0.1,0.3-0.4,0.5-0.7,0.5l0,0c-0.3-0.1-0.5-0.4-0.5-0.7l0.1-0.9
	c0.1-0.3,0.4-0.5,0.7-0.5l0,0C491.6,178.4,491.8,178.7,491.8,179z M493.1,173.6l-0.1,0.9c-0.1,0.3-0.4,0.5-0.7,0.5l0,0
	c-0.3-0.1-0.5-0.4-0.5-0.7l0.1-0.9c0.1-0.3,0.4-0.5,0.7-0.5l0,0C492.9,173,493.1,173.3,493.1,173.6z M494.9,169l-0.5,0.7
	c-0.2,0.3-0.6,0.3-0.8,0.1l0,0c-0.3-0.2-0.3-0.6-0.1-0.8l0.5-0.7c0.2-0.3,0.6-0.3,0.8-0.1l0,0C495.1,168.3,495.1,168.7,494.9,169z
	 M497.9,165.3l-0.6,0.7c-0.2,0.2-0.6,0.3-0.8,0l0,0c-0.2-0.2-0.3-0.6,0-0.8l0.6-0.7c0.2-0.2,0.6-0.3,0.8,0l0,0
	C498.1,164.7,498.2,165.1,497.9,165.3z M501.7,163.1l-0.8,0.2c-0.3,0.1-0.6-0.1-0.7-0.4l0,0c-0.1-0.3,0.1-0.6,0.4-0.7l0.8-0.2
	c0.3-0.1,0.6,0.1,0.7,0.4l0,0C502.2,162.7,502,163,501.7,163.1z M506,160l-0.6,0.7c-0.2,0.2-0.6,0.3-0.8,0l0,0
	c-0.2-0.2-0.3-0.6,0-0.8l0.6-0.7c0.2-0.2,0.6-0.3,0.8,0l0,0C506.2,159.4,506.3,159.8,506,160z M508.6,156.4l-0.3,0.8
	c-0.1,0.3-0.5,0.5-0.8,0.3l0,0c-0.3-0.1-0.5-0.5-0.3-0.8l0.3-0.8c0.1-0.3,0.5-0.5,0.8-0.3l0,0C508.6,155.8,508.8,156.1,508.6,156.4z
	 M509.3,151.7l-0.1,0.9c0,0.3-0.3,0.6-0.7,0.5l0,0c-0.3,0-0.6-0.3-0.5-0.7l0.1-0.9c0-0.3,0.3-0.6,0.7-0.5l0,0
	C509.1,151.1,509.4,151.4,509.3,151.7z M509.3,146.9l0,0.9c0,0.3-0.3,0.6-0.6,0.6l0,0c-0.3,0-0.6-0.3-0.6-0.6l0-0.9
	c0-0.3,0.3-0.6,0.6-0.6l0,0C509,146.3,509.3,146.6,509.3,146.9z M574.9-24.6L574.9-24.6"/>
</svg>
