<svg width="12" height="13" viewBox="0 0 12 13" fill="none" xmlns="http://www.w3.org/2000/svg">
<path d="M6 7.14285C6.82843 7.14285 7.5 6.47128 7.5 5.64285C7.5 4.81443 6.82843 4.14285 6 4.14285C5.17157 4.14285 4.5 4.81443 4.5 5.64285C4.5 6.47128 5.17157 7.14285 6 7.14285Z" stroke="#7D7D7D" stroke-width="0.705882" stroke-linecap="round" stroke-linejoin="round"/>
<path d="M9.75 5.64285C9.75 9.01785 6 11.6429 6 11.6429C6 11.6429 2.25 9.01785 2.25 5.64285C2.25 4.64829 2.64509 3.69446 3.34835 2.9912C4.05161 2.28794 5.00544 1.89285 6 1.89285C6.99456 1.89285 7.94839 2.28794 8.65165 2.9912C9.35491 3.69446 9.75 4.64829 9.75 5.64285V5.64285Z" stroke="#7D7D7D" stroke-width="0.705882" stroke-linecap="round" stroke-linejoin="round"/>
</svg>
