<svg width="12" height="13" viewBox="0 0 12 13" fill="none" xmlns="http://www.w3.org/2000/svg">
<path d="M4.33594 6.61781C4.72182 7.41469 5.36619 8.05741 6.16406 8.44124C6.22292 8.46911 6.28801 8.48117 6.35294 8.47624C6.41788 8.47131 6.4804 8.44956 6.53437 8.41312L7.70625 7.63031C7.75802 7.59519 7.81785 7.57376 7.88015 7.56803C7.94245 7.56229 8.00518 7.57243 8.0625 7.59749L10.2562 8.53968C10.3312 8.57089 10.3939 8.62587 10.4345 8.69618C10.4752 8.76648 10.4916 8.8482 10.4812 8.92874C10.4117 9.47143 10.1468 9.9702 9.73614 10.3317C9.32546 10.6932 8.79713 10.8927 8.25 10.8928C6.55924 10.8928 4.93774 10.2212 3.74219 9.02561C2.54665 7.83007 1.875 6.20856 1.875 4.51781C1.87512 3.97068 2.0746 3.44235 2.43611 3.03166C2.79761 2.62098 3.29637 2.35609 3.83906 2.28656C3.91961 2.27621 4.00133 2.29263 4.07163 2.33329C4.14193 2.37394 4.19692 2.43658 4.22812 2.51156L5.17031 4.70999C5.19481 4.76641 5.20506 4.82798 5.20016 4.88929C5.19525 4.9506 5.17535 5.00976 5.14219 5.06156L4.35937 6.25218C4.32452 6.30603 4.30407 6.36792 4.29997 6.43194C4.29586 6.49595 4.30825 6.55995 4.33594 6.61781V6.61781Z" stroke="#7D7D7D" stroke-width="0.705882" stroke-linecap="round" stroke-linejoin="round"/>
</svg>
