<svg width="40" height="40" viewBox="0 0 40 40" fill="none" xmlns="http://www.w3.org/2000/svg">
<path d="M16.35 12.5H11.1625C10.525 12.5 10 12.9875 10 13.575V22.6625C10 23.2625 10.525 23.7375 11.1625 23.7375H16.35C16.9875 23.7375 17.5125 23.25 17.5125 22.6625V13.575C17.5 12.9875 16.9875 12.5 16.35 12.5ZM19.9125 12.5H25.1C25.7375 12.5 26.25 12.9875 26.2625 13.575V22.6625C26.2625 23.25 25.7375 23.7375 25.1 23.7375H19.9125C19.275 23.7375 18.75 23.2625 18.75 22.6625V13.575C18.75 12.9875 19.275 12.5 19.9125 12.5ZM33.85 12.5H28.6625C28.025 12.5 27.5 12.9875 27.5 13.575V22.6625C27.5 23.2625 28.025 23.7375 28.6625 23.7375H33.85C34.4875 23.7375 35.0125 23.25 35.0125 22.6625V13.575C35 12.9875 34.4875 12.5 33.85 12.5Z" fill="#BAB8B8"/>
<path d="M1.25 12.425C1.25066 11.4505 1.63806 10.5162 2.32711 9.82712C3.01617 9.13807 3.95053 8.75067 4.925 8.75001H35.075C35.5578 8.74918 36.0361 8.84368 36.4823 9.02807C36.9286 9.21247 37.334 9.48313 37.6755 9.82455C38.0169 10.166 38.2875 10.5714 38.4719 11.0177C38.6563 11.4639 38.7508 11.9422 38.75 12.425V30.075C38.7493 31.0495 38.3619 31.9838 37.6729 32.6729C36.9838 33.3619 36.0495 33.7493 35.075 33.75H33.7188C33.5682 34.7914 33.0476 35.7437 32.2521 36.4324C31.4567 37.1212 30.4397 37.5003 29.3875 37.5003C28.3353 37.5003 27.3183 37.1212 26.5229 36.4324C25.7274 35.7437 25.2068 34.7914 25.0563 33.75H14.9938C14.8432 34.7914 14.3226 35.7437 13.5271 36.4324C12.7317 37.1212 11.7147 37.5003 10.6625 37.5003C9.6103 37.5003 8.59333 37.1212 7.79787 36.4324C7.00242 35.7437 6.48175 34.7914 6.33125 33.75H4.925C3.95053 33.7493 3.01617 33.3619 2.32711 32.6729C1.63806 31.9838 1.25066 31.0495 1.25 30.075V12.425ZM4.925 11.25C4.61357 11.2507 4.31509 11.3747 4.09488 11.5949C3.87467 11.8151 3.75066 12.1136 3.75 12.425V12.5H6.3375C6.975 12.5 7.5 12.9875 7.5 13.575V16.26C7.55393 16.2536 7.60819 16.2502 7.6625 16.25H8.15C8.475 16.25 8.75 16.5125 8.75 16.85V20.65C8.75 20.975 8.4875 21.25 8.15 21.25H7.6625C7.60821 21.2502 7.55396 21.2473 7.5 21.2413V22.675C7.5 23.2625 6.975 23.75 6.3375 23.75H3.75V24.9975H36.25V12.425C36.2508 12.2705 36.221 12.1173 36.1622 11.9744C36.1035 11.8314 36.017 11.7016 35.9077 11.5923C35.7984 11.483 35.6686 11.3965 35.5256 11.3378C35.3827 11.279 35.2295 11.2492 35.075 11.25H4.925ZM3.75 30.1175C3.76147 30.4185 3.88786 30.7037 4.10317 30.9143C4.31847 31.125 4.60632 31.2451 4.9075 31.25C5.26579 31.246 5.60799 31.1006 5.85948 30.8454C6.11096 30.5901 6.25134 30.2458 6.25 29.8875V27.6125C6.25 26.8625 5.6375 26.25 4.8875 26.25H3.75V30.1175ZM36.25 26.25H35.625C34.5625 26.25 33.7 27.1375 33.75 28.2125C33.8 29.225 34.675 30 35.6875 30H36.25V26.25ZM10.625 35C11.1223 35 11.5992 34.8025 11.9508 34.4508C12.3025 34.0992 12.5 33.6223 12.5 33.125C12.5 32.6277 12.3025 32.1508 11.9508 31.7992C11.5992 31.4475 11.1223 31.25 10.625 31.25C10.1277 31.25 9.65081 31.4475 9.29918 31.7992C8.94754 32.1508 8.75 32.6277 8.75 33.125C8.75 33.6223 8.94754 34.0992 9.29918 34.4508C9.65081 34.8025 10.1277 35 10.625 35ZM29.375 35C29.8723 35 30.3492 34.8025 30.7008 34.4508C31.0525 34.0992 31.25 33.6223 31.25 33.125C31.25 32.6277 31.0525 32.1508 30.7008 31.7992C30.3492 31.4475 29.8723 31.25 29.375 31.25C28.8777 31.25 28.4008 31.4475 28.0492 31.7992C27.6975 32.1508 27.5 32.6277 27.5 33.125C27.5 33.6223 27.6975 34.0992 28.0492 34.4508C28.4008 34.8025 28.8777 35 29.375 35Z" fill="#BAB8B8"/>
</svg>
