<svg width="29" height="34" viewBox="0 0 29 34" fill="none" xmlns="http://www.w3.org/2000/svg">
<path fill-rule="evenodd" clip-rule="evenodd" d="M6.35082 0.243452C4.89534 0.92233 2.89416 4.07748 1.87474 7.29999C1.00916 10.0366 0.850018 11.4127 0.755414 16.9716C0.654975 22.8678 0.718104 23.2687 1.91506 24.3417C2.7527 25.0927 3.63526 25.4756 5.04901 25.7018L6.18708 25.8838L3.4319 29.29C1.91648 31.1633 0.524476 32.8622 0.338274 33.065C0.15225 33.268 0 33.5614 0 33.7171C0 33.9704 0.153134 34 1.46503 34H2.93006L3.87857 32.8622L4.82709 31.7244H14.5168H24.2067L25.1444 32.8586L26.0823 33.9927L27.5412 33.9964C28.6951 33.9992 29 33.9543 29 33.7815C29 33.6614 27.6473 31.8581 25.9939 29.7743C24.3405 27.6905 22.9878 25.9534 22.9878 25.914C22.9878 25.8746 23.3526 25.7955 23.7982 25.7382C25.8349 25.4762 27.211 24.6976 27.8915 23.4227L28.3224 22.6152L28.2467 16.9677C28.1876 12.5528 28.1058 11.0057 27.8715 9.87897C26.9475 5.43676 24.5943 1.1153 22.6227 0.24057C21.8954 -0.0819541 7.04311 -0.0793751 6.35082 0.243452ZM21.6943 1.85592C22.9963 2.54633 24.7115 5.14821 25.433 7.52755C25.9647 9.2808 26.2201 11.2211 26.141 12.9081C26.0645 14.544 25.8457 14.9931 24.8792 15.4987C24.3368 15.7824 23.9163 15.7944 14.5 15.7944C5.20939 15.7944 4.65698 15.7791 4.14134 15.5093C3.21476 15.0246 3.0061 14.4139 3.0061 12.1862C3.0061 7.69913 4.71232 3.61979 7.31808 1.87655C7.82629 1.53643 7.85193 1.53522 14.4588 1.53522C20.9002 1.53522 21.1067 1.54432 21.6943 1.85592ZM9.90244 9.27215V12.7614H11.0518H12.2012L12.206 10.7513L12.2108 8.74119L12.7807 9.27261C13.0942 9.56494 13.6358 10.1018 13.9845 10.4659L14.6187 11.1275L15.735 9.96969C16.3491 9.33283 16.8891 8.84404 16.9353 8.88364C16.9814 8.92323 17.0292 9.79477 17.0416 10.8204L17.064 12.6855L18.2576 12.7304L19.4512 12.7752V9.27913V5.78295H18.3991H17.347L16.0812 7.07243C15.3852 7.78165 14.7587 8.36192 14.689 8.36192C14.6194 8.36192 13.9865 7.78165 13.2827 7.07243L12.0028 5.78295H10.9526H9.90244V9.27215ZM7.16866 19.3736C8.85879 20.0615 8.80274 22.0866 7.07741 22.6789C6.1869 22.9846 6.12148 22.9843 5.35492 22.6722C3.75745 22.0219 3.6609 20.2252 5.18092 19.4303C5.86808 19.0708 6.38849 19.0559 7.16866 19.3736ZM23.6882 19.3575C25.4717 20.1488 25.3101 22.2415 23.424 22.7755C22.1102 23.1475 20.689 22.2517 20.689 21.0514C20.689 20.3208 21.0229 19.8382 21.8149 19.4239C22.481 19.0755 23.0103 19.0566 23.6882 19.3575ZM20.3306 26.832C20.7256 27.3952 21.4945 28.3883 22.0393 29.039C22.5841 29.6896 22.9929 30.2535 22.9482 30.292C22.9033 30.3306 19.0756 30.3444 14.4425 30.3227L6.01856 30.2832L6.9096 29.1257L7.80065 27.9682L11.6366 27.8962C15.5392 27.823 16.0915 27.7595 16.0915 27.3846C16.0915 27.2144 15.567 27.1681 13.3948 27.1464C11.9116 27.1316 10.2009 27.1386 9.59299 27.1619C8.35907 27.2092 8.30638 27.151 8.85897 26.3476L9.23013 25.808H14.4213H19.6125L20.3306 26.832Z" fill="#BAB8B8"/>
</svg>
